<svg width="136" height="130" viewBox="0 0 136 130" fill="none" xmlns="http://www.w3.org/2000/svg">
<g clip-path="url(#clip0_8960_7495)">
<path d="M105.729 10.6286C121.337 21.2566 131.989 37.5548 135.526 56.0649C136.141 59.554 136.409 62.9908 136.385 66.5307C136.381 67.2396 136.385 67.9482 136.389 68.657C136.395 73.0235 135.91 77.3299 134.829 81.5689C134.764 81.8289 134.699 82.0889 134.632 82.3568C133.503 86.757 131.951 90.9045 129.953 94.9879C129.833 95.2351 129.833 95.2351 129.711 95.4873C127.473 100.046 124.434 104.229 121.086 108.046C120.962 108.188 120.837 108.33 120.709 108.477C111.25 119.162 98.0186 126.403 83.8485 128.637C83.5699 128.682 83.2913 128.727 83.0042 128.774C80.1899 129.177 77.3997 129.225 74.559 129.219C73.767 129.218 72.9753 129.224 72.1834 129.23C67.8605 129.244 63.7208 129.036 59.7832 127.131C59.4703 126.993 59.1569 126.856 58.8431 126.721C54.7288 124.921 51.3994 122.549 49.5762 118.339C48.191 114.626 47.9632 110.202 49.6504 106.539C51.4691 102.818 54.4266 100.303 58.2494 98.7654C59.9493 98.1901 61.4182 97.9236 63.203 97.9542C63.4719 97.9545 63.4719 97.9545 63.7462 97.9547C64.7882 97.9632 65.7877 98.0547 66.8215 98.1937C76.0325 99.1567 85.2305 96.4298 92.4613 90.7189C99.7886 84.7058 104.09 76.3568 105.07 67.0134C105.79 58.8351 103.491 50.3649 98.541 43.7602C98.3918 43.5566 98.2425 43.353 98.0888 43.1432C95.1105 39.2631 91.4193 36.1385 87.0941 33.8412C83.3175 31.8208 80.5693 28.8027 79.2887 24.6754C78.192 20.4073 78.8958 16.3364 81.1203 12.562C83.3083 9.17692 86.7388 7.12362 90.651 6.19306C96.3737 5.1381 101.089 7.62476 105.729 10.6286ZM92.2367 19.3951C91.3311 20.5581 90.6618 21.623 90.5298 23.1059C90.5108 23.3066 90.4919 23.5073 90.4724 23.7141C90.46 23.8656 90.4476 24.0171 90.4348 24.1732C90.571 24.2513 90.7072 24.3295 90.8476 24.41C93.639 26.0189 96.3073 27.6472 98.7943 29.6977C99.0126 29.8744 99.0126 29.8744 99.2353 30.0547C108.716 37.7439 115.334 50.3345 116.662 62.4125C117.673 73.7805 114.731 85.2989 107.301 94.1607C106.774 94.762 106.228 95.3441 105.674 95.9217C105.216 96.4015 104.798 96.8891 104.383 97.4049C103.351 98.609 102.073 99.5449 100.821 100.512C100.582 100.7 100.344 100.887 100.099 101.079C92.4783 106.923 83.3167 109.863 73.7157 109.835C73.3826 109.836 73.0496 109.837 72.7064 109.838C70.993 109.836 69.3342 109.777 67.636 109.553C65.8519 109.407 64.3799 109.626 62.823 110.557C61.5438 111.692 60.3817 112.927 60.2403 114.69C60.2462 114.885 60.2521 115.08 60.2581 115.281C60.2627 115.48 60.2673 115.678 60.272 115.883C60.2808 116.105 60.2808 116.105 60.2898 116.333C66.0034 119.893 76.7552 117.761 82.9025 116.418C91.296 114.502 99.115 110.626 105.634 105.033C105.838 104.858 106.041 104.684 106.251 104.505C116.185 95.8251 122.522 84.1583 124.38 71.1319C124.405 70.9671 124.431 70.8024 124.457 70.6326C125.512 62.8865 124.577 54.6503 122.1 47.2759C122.033 47.0754 121.967 46.875 121.899 46.6685C119.678 40.0477 116.166 34.1365 111.572 28.8691C111.246 28.4875 110.936 28.0918 110.629 27.6947C110.485 27.527 110.342 27.3593 110.194 27.1866C110.026 27.1866 109.859 27.1866 109.687 27.1866C109.611 26.9856 109.611 26.9856 109.534 26.7805C109.023 25.9161 108.324 25.3151 107.581 24.644C107.423 24.4999 107.264 24.3557 107.101 24.2072C102.142 19.5752 102.142 19.5752 96.0127 17.5598C94.5176 17.7247 93.2787 18.3151 92.2367 19.3951Z" fill="#E80A4D"/>
<path d="M61.1103 0.480779C61.6046 0.474309 62.0989 0.464273 62.5931 0.454126C66.9629 0.446764 70.1445 2.10778 73.209 5.08837C73.3527 5.22465 73.4963 5.36093 73.6444 5.50134C76.5296 8.50599 77.1655 12.3722 77.0869 16.3356C76.9189 20.1808 74.9917 23.4325 72.2194 26.0448C69.1864 28.6269 65.8247 29.4721 61.9204 29.8076C53.8043 30.5968 46.5218 33.3774 40.4732 38.9097C40.3324 39.0381 40.1916 39.1665 40.0465 39.2988C39.701 39.6139 39.3559 39.9292 39.0109 40.2446C39.3215 40.2461 39.6321 40.2476 39.9521 40.2491C42.8888 40.2635 45.8254 40.2818 48.762 40.3038C50.2715 40.315 51.781 40.3249 53.2905 40.3316C54.7491 40.3382 56.2076 40.3483 57.6661 40.3609C58.2208 40.3651 58.7754 40.368 59.33 40.3696C64.5999 40.386 69.1183 40.9795 73.0724 44.801C76.167 48.251 77.2904 51.9477 77.1196 56.5348C76.8658 60.3129 74.9904 63.4423 72.3065 66.0625C69.0945 68.7632 65.5406 69.6983 61.4103 69.7053C61.0656 69.7076 60.7209 69.7102 60.3762 69.7129C59.4458 69.7197 58.5154 69.7236 57.5849 69.7268C56.6105 69.7308 55.6362 69.7375 54.6618 69.7439C52.8192 69.7556 50.9765 69.7649 49.1338 69.7732C47.0349 69.7828 44.9361 69.7952 42.8372 69.8079C38.522 69.8338 34.2067 69.8562 29.8914 69.8763C30.1219 70.7899 30.3561 71.7026 30.591 72.6151C30.6554 72.8705 30.7198 73.126 30.7861 73.3892C32.0778 78.3794 34.5949 82.8278 37.9976 86.7011C38.1328 86.8655 38.268 87.03 38.4073 87.1994C39.3469 88.3373 40.4169 89.2654 41.5441 90.2167C45.2168 93.3774 47.7892 96.6252 48.2016 101.628C48.3058 105.548 47.0956 109.217 44.4572 112.189C44.0827 112.571 43.7031 112.949 43.3173 113.319C43.1746 113.463 43.0319 113.607 42.8849 113.755C40.1432 116.321 36.4167 117.216 32.7507 117.174C28.1605 117.023 24.82 114.774 21.5319 111.813C21.3961 111.692 21.2604 111.571 21.1206 111.447C20.2343 110.658 19.3599 109.859 18.492 109.05C18.2427 108.819 18.2427 108.819 17.9884 108.584C16.906 107.548 15.9647 106.412 15.0237 105.249C14.6532 104.794 14.2771 104.343 13.8937 103.898C5.51539 94.1204 0.0415385 80.5012 -0.0606335 67.6496C-0.0631145 67.3924 -0.0655955 67.1351 -0.0681516 66.8701C-0.150494 56.1234 -0.150494 56.1234 1.013 51.0426C1.06864 50.7945 1.12427 50.5464 1.1816 50.2907C4.45126 36.0963 12.5459 22.7544 24.3184 13.8774C24.4525 13.7741 24.5867 13.6708 24.7249 13.5644C33.3046 6.9754 43.1272 3.14253 53.7034 1.07051C53.8942 1.03288 54.085 0.995252 54.2815 0.956481C56.5365 0.535457 58.822 0.509498 61.1103 0.480779ZM30.398 21.9131C30.2586 22.0266 30.1192 22.14 29.9756 22.2568C26.4207 25.15 23.2484 28.2832 20.5186 31.9578C20.3582 32.1711 20.1979 32.3844 20.0327 32.6042C11.7891 43.9178 8.26111 58.3361 10.3858 72.1364C12.4818 84.9271 19.105 97.5721 29.6381 105.535C29.852 105.71 30.0658 105.885 30.2862 106.065C31.711 107.157 32.932 107.243 34.7045 107.042C36.1808 106.546 37.0817 105.532 37.8076 104.201C38.2329 102.69 38.1473 101.41 37.3871 100.045C36.3627 98.6799 34.9601 97.6328 33.6546 96.5437C26.044 90.121 20.6425 79.6545 19.7021 69.7853C19.5143 67.0151 19.7899 64.7432 21.5794 62.5155C22.8998 61.1219 24.5821 60.1422 26.5302 60.0501C26.7972 60.0494 27.0642 60.0488 27.3393 60.0481C27.8 60.0461 27.8 60.0461 28.27 60.044C28.6097 60.0437 28.9493 60.0434 29.289 60.0432C29.6473 60.042 30.0056 60.0407 30.3639 60.0393C31.1354 60.0365 31.9068 60.0344 32.6782 60.0328C33.8995 60.0301 35.1207 60.025 36.3419 60.0194C39.8146 60.0039 43.2872 59.9903 46.7599 59.982C48.6781 59.9774 50.5962 59.9701 52.5143 59.9599C53.5286 59.9546 54.5428 59.9507 55.557 59.9502C56.512 59.9496 57.467 59.9456 58.422 59.939C58.9367 59.9364 59.4514 59.9374 59.9661 59.9386C62.0489 59.9199 63.7452 59.7108 65.5619 58.6703C66.4805 57.6816 67.0617 56.5894 67.1798 55.2351C67.0944 53.8372 66.6226 52.5407 65.6094 51.5448C63.9252 50.5195 62.6094 50.3985 60.6571 50.4192C60.3701 50.4183 60.0831 50.4173 59.7875 50.4163C59.1669 50.4148 58.5463 50.4155 57.9257 50.4184C56.9414 50.4227 55.9573 50.4208 54.973 50.4173C52.705 50.41 50.437 50.4127 48.169 50.4155C45.9256 50.4181 43.6822 50.4168 41.4388 50.4088C40.4728 50.407 39.507 50.4112 38.5411 50.4156C37.9434 50.4142 37.3457 50.4124 36.7481 50.4104C36.4827 50.4133 36.2173 50.4161 35.9438 50.419C33.2323 50.3971 30.8365 49.7515 28.8554 47.8517C26.9971 45.6404 26.6422 43.2954 26.8516 40.4957C27.301 38.4667 28.5304 36.9997 29.8914 35.4734C30.101 35.2352 30.3107 34.9969 30.5267 34.7515C38.319 26.03 48.9965 20.7665 60.733 19.9042C61.0769 19.8866 61.0769 19.8866 61.4278 19.8685C63.2589 19.7503 64.8238 19.3165 66.0844 17.9267C67.0164 16.5679 67.2467 15.5278 67.0125 13.9216C66.6662 12.5358 65.7528 11.6471 64.5961 10.864C55.8535 5.9117 36.9174 16.4953 30.398 21.9131Z" fill="#7B39EC"/>
</g>
<defs>
<clipPath id="clip0_8960_7495">
<rect width="135.689" height="129.139" fill="white"/>
</clipPath>
</defs>
</svg>
