<svg width="1357" height="300" viewBox="0 0 1357 300" fill="none" xmlns="http://www.w3.org/2000/svg">
<path d="M250.568 55.0337C228.115 29.1952 197.084 12.189 163.41 7.32947C162.749 7.21973 162.09 7.21973 161.431 7.21973V11.8576V7.21973C154.497 7.21973 148.555 12.4107 147.565 19.2566C146.463 26.8752 151.746 34.0526 159.449 35.1566C186.52 39.1316 211.389 52.7159 229.546 73.5852C247.865 94.6481 257.945 121.581 257.939 149.446C257.939 180.256 245.942 209.297 224.265 231.051C202.475 252.914 173.646 264.841 142.943 264.841C117.964 264.841 94.1932 256.889 74.1669 241.983C71.7446 240.105 68.8837 239.222 65.8024 239.222C63.6208 239.228 61.4706 239.74 59.5224 240.717C57.5742 241.695 55.8817 243.112 54.5792 244.854C49.9572 251.037 51.2775 259.872 57.4401 264.51C82.3088 283.171 111.802 293 142.943 293C181.129 293 217.11 278.092 244.073 250.928C271.144 223.763 285.999 187.765 285.999 149.446C285.889 114.663 273.343 81.094 250.564 55.0337H250.568ZM240.663 247.506C214.472 273.785 179.809 288.14 142.835 288.14C112.793 288.14 84.1822 278.643 60.0828 260.645C56.0119 257.552 55.1302 251.7 58.2115 247.504C60.085 245.074 62.8335 243.75 65.6944 243.75C67.6759 243.75 69.5471 244.301 71.3082 245.627C92.1059 261.195 116.867 269.479 142.835 269.479C174.858 269.479 204.9 257.001 227.459 234.253C250.128 211.505 262.561 181.36 262.561 149.336C262.561 120.295 252.107 92.2463 233.07 70.3828C214.254 48.7409 188.283 34.4959 160.113 30.409C155.05 29.6364 151.528 24.8888 152.189 19.8076C152.85 15.1697 156.811 11.7478 161.433 11.7478C161.874 11.7478 162.313 11.7478 162.753 11.8576C195.325 16.6052 225.257 32.9507 247.046 58.0166C269.054 83.302 281.159 115.655 281.159 149.336C281.159 186.439 266.744 221.334 240.663 247.504V247.506Z" fill="#E7004C"/>
<path d="M50.5088 218.351C35.543 198.254 27.7318 174.402 27.7318 149.336C27.7318 141.717 28.501 133.987 30.0417 126.478C30.4829 124.36 31.6426 122.458 33.3259 121.091C35.0092 119.724 37.1136 118.976 39.2856 118.971H124.678C132.161 118.971 138.214 112.674 138.214 104.946C138.214 97.2154 132.161 90.9204 124.681 90.9204H48.8601C48.3357 90.9218 47.8211 90.778 47.374 90.5052C46.9268 90.2323 46.5645 89.8411 46.3276 89.3751C46.1072 88.934 45.5562 87.7202 46.4378 86.2847C49.4089 81.7566 52.7106 77.3382 56.2328 73.3632C74.39 52.494 99.2587 38.9119 126.329 34.9369C133.922 33.8328 139.313 26.6555 138.214 19.0347C137.222 12.1888 131.284 7 124.35 7C123.689 7 123.028 7 122.366 7.10975C88.6945 11.9693 57.6632 28.9755 35.2146 54.814C12.4354 80.984 0 114.441 0 149.116C0 180.256 9.79274 209.959 28.3908 234.916C29.6935 236.659 31.3864 238.075 33.335 239.053C35.2836 240.031 37.4342 240.542 39.6162 240.548C42.629 240.545 45.561 239.577 47.9785 237.786C49.463 236.677 50.7131 235.286 51.6571 233.694C52.6011 232.103 53.2205 230.341 53.4799 228.511C53.7003 224.977 52.7106 221.333 50.5088 218.351ZM44.8972 234.253C43.2751 235.457 41.3091 236.115 39.2856 236.129C36.4247 236.129 33.674 234.806 31.8027 232.376C13.8659 208.302 4.40155 179.593 4.40155 149.336C4.40155 115.767 16.5064 83.3018 38.5141 58.0142C60.3037 32.9483 90.2352 16.6049 122.807 11.8573C123.248 11.7476 123.689 11.7476 124.13 11.7476C126.387 11.7559 128.565 12.5761 130.263 14.0571C131.961 15.5381 133.065 17.5802 133.371 19.8073C134.143 24.8886 130.621 29.6362 125.45 30.4088C97.2772 34.4957 71.3087 48.7385 52.4902 70.3825C48.7935 74.624 45.4102 79.1266 42.3669 83.8549C39.0652 88.934 42.6975 95.6702 48.7499 95.6702H124.57C129.521 95.6702 133.481 99.8668 133.481 105.056C133.481 110.247 129.521 114.441 124.568 114.441H39.1754C35.9241 114.429 32.7705 115.547 30.2593 117.604C27.7482 119.661 26.0372 122.526 25.4219 125.705C23.8733 133.524 23.0981 141.476 23.1076 149.446C23.1076 175.506 31.3619 200.352 46.8786 221.221C49.8497 225.308 48.9681 231.16 44.8972 234.253V234.253Z" fill="#9A51FE"/>
<path d="M221.848 90.927H162.975C155.271 90.927 148.999 97.2198 148.999 104.95C148.999 112.679 155.271 118.976 162.973 118.976H221.848C229.551 118.976 235.822 112.679 235.822 104.95C235.822 97.2198 229.551 90.9248 221.848 90.9248V90.927ZM221.848 114.336H162.975C157.802 114.336 153.621 110.139 153.621 104.95C153.621 99.7593 157.802 95.5649 162.975 95.5649H221.846C227.019 95.5649 231.2 99.7593 231.2 104.95C231.09 110.139 226.909 114.336 221.848 114.336V114.336ZM56.4514 132.665C48.7504 132.665 42.4775 138.961 42.4775 146.691C42.4775 174.296 52.8213 200.357 71.7478 219.902C90.6764 239.558 115.984 250.489 142.836 250.489C169.686 250.489 194.996 239.668 213.924 219.902C232.741 200.357 243.195 174.296 243.195 146.691C243.195 138.961 236.924 132.665 229.221 132.665H56.4514ZM238.465 146.691C238.465 173.083 228.559 197.927 210.512 216.588C192.465 235.361 168.366 245.741 142.726 245.741C117.086 245.741 92.9863 235.361 74.9393 216.588C56.8922 197.927 46.9893 173.083 46.9893 146.691C46.9893 141.5 51.1704 137.303 56.3434 137.303H229.11C234.281 137.303 238.465 141.5 238.465 146.691V146.691Z" fill="#374151"/>
<path d="M142.837 227.077C182.343 227.077 214.915 195.938 219.429 156.074H66.2451C70.7569 195.938 103.329 227.077 142.837 227.077ZM191.038 203.115C177.723 215.593 160.666 222.439 142.839 222.439C125.013 222.439 107.955 215.591 94.6403 203.115C82.6457 191.963 74.6118 177.055 71.7509 160.711H214.038C211.067 176.943 203.033 191.851 191.038 203.115ZM185.204 58.3472C173.65 50.3972 158.574 46.0908 142.727 46.0908C126.769 46.0908 111.583 50.507 100.032 58.5689C95.9584 61.4399 94.1973 66.5189 95.7379 71.2665C96.4374 73.5709 97.8645 75.5893 99.8073 77.0218C101.75 78.4544 104.105 79.2248 106.523 79.2187L179.041 79.1089C183.994 79.1089 188.285 75.9043 189.826 71.1567C191.146 66.2994 189.385 61.2182 185.204 58.3472V58.3472ZM185.204 69.6115C184.322 72.3727 181.792 74.2494 178.931 74.2494L106.412 74.3591C103.551 74.3591 101.021 72.4825 100.14 69.7213C99.2601 66.9601 100.36 63.9794 102.672 62.3244C113.457 54.8134 127.761 50.7287 142.727 50.7287C157.693 50.7287 171.887 54.8134 182.563 62.2125C184.983 63.8696 186.083 66.8503 185.204 69.6093V69.6115Z" fill="#374151"/>
<path d="M373.069 145.872H422.489V164.993H373.069V145.872ZM374.834 202.5H351.006V99.5406H428.814V118.662H374.834V202.5ZM483.683 202.5V187.056L482.212 183.673V156.021C482.212 151.118 480.693 147.294 477.653 144.549C474.711 141.803 470.152 140.43 463.974 140.43C459.758 140.43 455.59 141.117 451.472 142.489C447.451 143.764 444.019 145.529 441.176 147.784L432.939 131.752C437.254 128.712 442.451 126.359 448.53 124.692C454.61 123.025 460.787 122.192 467.063 122.192C479.124 122.192 488.488 125.035 495.156 130.723C501.824 136.41 505.158 145.284 505.158 157.345V202.5H483.683ZM459.561 203.677C453.384 203.677 448.089 202.647 443.676 200.588C439.264 198.431 435.881 195.538 433.527 191.91C431.174 188.282 429.997 184.212 429.997 179.702C429.997 174.995 431.125 170.877 433.38 167.347C435.734 163.817 439.411 161.071 444.412 159.11C449.413 157.051 455.933 156.021 463.974 156.021H485.007V169.406H466.474C461.081 169.406 457.355 170.288 455.296 172.053C453.335 173.818 452.354 176.025 452.354 178.672C452.354 181.614 453.482 183.967 455.737 185.732C458.091 187.399 461.277 188.233 465.298 188.233C469.122 188.233 472.554 187.35 475.594 185.585C478.633 183.722 480.84 181.026 482.212 177.496L485.743 188.086C484.076 193.185 481.036 197.058 476.623 199.705C472.211 202.353 466.523 203.677 459.561 203.677ZM553.429 203.677C546.859 203.677 540.976 202.402 535.779 199.852C530.68 197.303 526.709 193.43 523.865 188.233C521.021 182.938 519.6 176.221 519.6 168.082V123.368H542.545V164.699C542.545 171.269 543.918 176.123 546.663 179.261C549.507 182.3 553.478 183.82 558.577 183.82C562.107 183.82 565.245 183.085 567.991 181.614C570.736 180.045 572.893 177.692 574.462 174.554C576.031 171.318 576.816 167.298 576.816 162.493V123.368H599.761V202.5H577.992V180.731L581.964 187.056C579.316 192.547 575.394 196.715 570.197 199.558C565.098 202.304 559.509 203.677 553.429 203.677ZM653.377 203.677C644.846 203.677 637.246 201.961 630.579 198.529C623.911 194.999 618.665 190.145 614.84 183.967C611.114 177.79 609.251 170.779 609.251 162.934C609.251 154.992 611.114 147.981 614.84 141.901C618.665 135.723 623.911 130.919 630.579 127.487C637.246 123.957 644.846 122.192 653.377 122.192C661.712 122.192 668.968 123.957 675.145 127.487C681.323 130.919 685.882 135.871 688.824 142.342L671.027 151.903C668.968 148.177 666.369 145.431 663.231 143.666C660.192 141.901 656.858 141.019 653.23 141.019C649.307 141.019 645.777 141.901 642.64 143.666C639.502 145.431 637.001 147.932 635.138 151.167C633.373 154.403 632.491 158.326 632.491 162.934C632.491 167.543 633.373 171.465 635.138 174.701C637.001 177.937 639.502 180.437 642.64 182.202C645.777 183.967 649.307 184.85 653.23 184.85C656.858 184.85 660.192 184.016 663.231 182.349C666.369 180.584 668.968 177.79 671.027 173.966L688.824 183.673C685.882 190.047 681.323 194.999 675.145 198.529C668.968 201.961 661.712 203.677 653.377 203.677ZM734.418 203.677C725.397 203.677 717.454 201.912 710.59 198.382C703.825 194.852 698.579 190.047 694.852 183.967C691.126 177.79 689.263 170.779 689.263 162.934C689.263 154.992 691.077 147.981 694.705 141.901C698.431 135.723 703.481 130.919 709.855 127.487C716.229 123.957 723.436 122.192 731.476 122.192C739.223 122.192 746.185 123.859 752.363 127.193C758.638 130.428 763.59 135.135 767.218 141.313C770.846 147.392 772.66 154.697 772.66 163.228C772.66 164.111 772.611 165.14 772.513 166.317C772.415 167.396 772.317 168.425 772.219 169.406H707.943V156.021H760.158L751.333 159.992C751.333 155.874 750.499 152.295 748.833 149.255C747.166 146.216 744.861 143.862 741.92 142.195C738.978 140.43 735.546 139.548 731.624 139.548C727.701 139.548 724.22 140.43 721.181 142.195C718.239 143.862 715.935 146.265 714.268 149.402C712.601 152.442 711.767 156.07 711.767 160.287V163.817C711.767 168.131 712.699 171.955 714.562 175.289C716.523 178.525 719.219 181.026 722.651 182.791C726.181 184.458 730.3 185.291 735.007 185.291C739.223 185.291 742.9 184.654 746.038 183.379C749.274 182.104 752.215 180.192 754.863 177.643L767.071 190.88C763.443 194.999 758.883 198.186 753.392 200.441C747.901 202.598 741.576 203.677 734.418 203.677ZM814.412 203.677C805.096 203.677 797.84 201.323 792.643 196.617C787.446 191.812 784.848 184.703 784.848 175.289V105.865H807.793V174.995C807.793 178.329 808.675 180.928 810.44 182.791C812.205 184.556 814.608 185.438 817.648 185.438C821.276 185.438 824.364 184.458 826.914 182.496L833.091 198.676C830.738 200.343 827.894 201.617 824.561 202.5C821.325 203.284 817.942 203.677 814.412 203.677ZM772.64 142.784V125.133H827.502V142.784H772.64ZM926.751 204.265C918.809 204.265 911.405 202.99 904.541 200.441C897.775 197.793 891.892 194.067 886.891 189.262C881.89 184.458 877.968 178.819 875.124 172.348C872.379 165.876 871.006 158.767 871.006 151.02C871.006 143.274 872.379 136.165 875.124 129.693C877.968 123.221 881.89 117.583 886.891 112.778C891.99 107.973 897.923 104.296 904.688 101.747C911.454 99.0993 918.858 97.7756 926.898 97.7756C935.821 97.7756 943.862 99.3445 951.02 102.482C958.276 105.522 964.356 110.033 969.259 116.014L953.962 130.134C950.432 126.114 946.51 123.123 942.195 121.162C937.881 119.103 933.174 118.073 928.075 118.073C923.27 118.073 918.858 118.858 914.837 120.427C910.817 121.996 907.336 124.251 904.394 127.193C901.453 130.134 899.148 133.615 897.481 137.636C895.912 141.656 895.128 146.117 895.128 151.02C895.128 155.923 895.912 160.385 897.481 164.405C899.148 168.425 901.453 171.906 904.394 174.848C907.336 177.79 910.817 180.045 914.837 181.614C918.858 183.183 923.27 183.967 928.075 183.967C933.174 183.967 937.881 182.987 942.195 181.026C946.51 178.966 950.432 175.878 953.962 171.759L969.259 185.879C964.356 191.861 958.276 196.42 951.02 199.558C943.862 202.696 935.772 204.265 926.751 204.265ZM977.848 202.5V123.368H999.764V145.725L996.675 139.254C999.028 133.664 1002.8 129.448 1008 126.604C1013.2 123.663 1019.52 122.192 1026.97 122.192V143.372C1025.99 143.274 1025.11 143.225 1024.33 143.225C1023.54 143.127 1022.71 143.078 1021.83 143.078C1015.55 143.078 1010.45 144.892 1006.53 148.52C1002.71 152.05 1000.79 157.59 1000.79 165.14V202.5H977.848ZM1047.47 232.211C1043.35 232.211 1039.28 231.574 1035.26 230.299C1031.24 229.024 1027.95 227.259 1025.4 225.004L1033.79 208.678C1035.55 210.246 1037.56 211.472 1039.82 212.355C1042.17 213.237 1044.47 213.678 1046.73 213.678C1049.97 213.678 1052.52 212.894 1054.38 211.325C1056.34 209.854 1058.1 207.354 1059.67 203.824L1063.79 194.116L1065.56 191.616L1093.94 123.368H1116.01L1080.27 207.354C1077.72 213.727 1074.77 218.728 1071.44 222.356C1068.2 225.985 1064.58 228.534 1060.56 230.005C1056.63 231.476 1052.27 232.211 1047.47 232.211ZM1061 205.589L1025.7 123.368H1049.38L1076.74 189.557L1061 205.589ZM1166.26 203.677C1159.59 203.677 1153.76 202.206 1148.76 199.264C1143.76 196.322 1139.83 191.861 1136.99 185.879C1134.24 179.8 1132.87 172.151 1132.87 162.934C1132.87 153.619 1134.19 145.97 1136.84 139.989C1139.49 134.007 1143.31 129.546 1148.31 126.604C1153.32 123.663 1159.3 122.192 1166.26 122.192C1173.71 122.192 1180.38 123.908 1186.26 127.34C1192.24 130.674 1196.95 135.38 1200.38 141.46C1203.91 147.539 1205.68 154.697 1205.68 162.934C1205.68 171.269 1203.91 178.476 1200.38 184.556C1196.95 190.635 1192.24 195.342 1186.26 198.676C1180.38 202.01 1173.71 203.677 1166.26 203.677ZM1119.49 231.034V123.368H1141.4V139.548L1140.96 163.081L1142.43 186.468V231.034H1119.49ZM1162.29 184.85C1166.11 184.85 1169.5 183.967 1172.44 182.202C1175.48 180.437 1177.88 177.937 1179.64 174.701C1181.51 171.367 1182.44 167.445 1182.44 162.934C1182.44 158.326 1181.51 154.403 1179.64 151.167C1177.88 147.932 1175.48 145.431 1172.44 143.666C1169.5 141.901 1166.11 141.019 1162.29 141.019C1158.46 141.019 1155.03 141.901 1151.99 143.666C1148.95 145.431 1146.55 147.932 1144.78 151.167C1143.02 154.403 1142.14 158.326 1142.14 162.934C1142.14 167.445 1143.02 171.367 1144.78 174.701C1146.55 177.937 1148.95 180.437 1151.99 182.202C1155.03 183.967 1158.46 184.85 1162.29 184.85ZM1247.51 203.677C1238.2 203.677 1230.94 201.323 1225.74 196.617C1220.55 191.812 1217.95 184.703 1217.95 175.289V105.865H1240.89V174.995C1240.89 178.329 1241.78 180.928 1243.54 182.791C1245.31 184.556 1247.71 185.438 1250.75 185.438C1254.38 185.438 1257.47 184.458 1260.02 182.496L1266.19 198.676C1263.84 200.343 1261 201.617 1257.66 202.5C1254.43 203.284 1251.04 203.677 1247.51 203.677ZM1205.74 142.784V125.133H1260.6V142.784H1205.74ZM1308.4 203.677C1299.97 203.677 1292.47 201.912 1285.9 198.382C1279.43 194.852 1274.28 190.047 1270.45 183.967C1266.73 177.79 1264.86 170.779 1264.86 162.934C1264.86 154.992 1266.73 147.981 1270.45 141.901C1274.28 135.723 1279.43 130.919 1285.9 127.487C1292.47 123.957 1299.97 122.192 1308.4 122.192C1316.74 122.192 1324.19 123.957 1330.76 127.487C1337.33 130.919 1342.48 135.674 1346.2 141.754C1349.93 147.833 1351.79 154.894 1351.79 162.934C1351.79 170.779 1349.93 177.79 1346.2 183.967C1342.48 190.047 1337.33 194.852 1330.76 198.382C1324.19 201.912 1316.74 203.677 1308.4 203.677ZM1308.4 184.85C1312.23 184.85 1315.66 183.967 1318.7 182.202C1321.74 180.437 1324.14 177.937 1325.91 174.701C1327.67 171.367 1328.55 167.445 1328.55 162.934C1328.55 158.326 1327.67 154.403 1325.91 151.167C1324.14 147.932 1321.74 145.431 1318.7 143.666C1315.66 141.901 1312.23 141.019 1308.4 141.019C1304.58 141.019 1301.15 141.901 1298.11 143.666C1295.07 145.431 1292.61 147.932 1290.75 151.167C1288.99 154.403 1288.1 158.326 1288.1 162.934C1288.1 167.445 1288.99 171.367 1290.75 174.701C1292.61 177.937 1295.07 180.437 1298.11 182.202C1301.15 183.967 1304.58 184.85 1308.4 184.85Z" fill="#150225"/>
</svg>
