<svg width="652" height="138" viewBox="0 0 652 138" fill="none" xmlns="http://www.w3.org/2000/svg">
<path d="M120.356 23.0721C109.571 10.661 94.666 2.49238 78.4913 0.158183C78.1737 0.105469 77.8571 0.105469 77.5406 0.105469V2.33318V0.105469C74.2099 0.105469 71.3557 2.59886 70.8803 5.88719C70.351 9.54663 72.8887 12.9942 76.5888 13.5245C89.5917 15.4338 101.537 21.9588 110.258 31.983C119.058 42.1002 123.9 55.037 123.897 68.4213C123.897 83.2204 118.134 97.1697 107.722 107.619C97.2556 118.121 83.4079 123.85 68.6603 123.85C56.6621 123.85 45.2441 120.03 35.6248 112.87C34.4613 111.968 33.0871 111.544 31.6071 111.544C30.5592 111.547 29.5264 111.792 28.5906 112.262C27.6548 112.732 26.8418 113.412 26.2162 114.249C23.9961 117.219 24.6303 121.463 27.5904 123.69C39.5356 132.654 53.702 137.375 68.6603 137.375C87.0021 137.375 104.285 130.214 117.236 117.166C130.239 104.119 137.375 86.8271 137.375 68.4213C137.322 51.714 131.296 35.5897 120.354 23.0721H120.356ZM115.598 115.523C103.018 128.146 86.368 135.041 68.6084 135.041C54.1784 135.041 40.4355 130.479 28.8597 121.834C26.9043 120.348 26.4809 117.537 27.9609 115.522C28.8608 114.355 30.181 113.719 31.5552 113.719C32.5069 113.719 33.4058 113.983 34.2517 114.62C44.2415 122.098 56.1349 126.077 68.6084 126.077C83.9901 126.077 98.4201 120.084 109.256 109.157C120.145 98.2303 126.117 83.7507 126.117 68.3686C126.117 54.4193 121.095 40.9465 111.951 30.4448C102.913 20.0495 90.4386 13.2071 76.9075 11.244C74.4757 10.8729 72.7839 8.5925 73.1015 6.15182C73.4191 3.92411 75.3216 2.28047 77.5416 2.28047C77.7534 2.28047 77.9641 2.28047 78.1758 2.33318C93.8212 4.61361 108.198 12.4649 118.664 24.5049C129.236 36.6503 135.05 52.1905 135.05 68.3686C135.05 86.1903 128.126 102.951 115.598 115.522V115.523Z" fill="#E7004C"/>
<path d="M24.261 101.519C17.0725 91.8655 13.3205 80.4086 13.3205 68.3686C13.3205 64.7091 13.69 60.9959 14.43 57.3892C14.642 56.3719 15.199 55.4583 16.0075 54.8017C16.8161 54.1451 17.8269 53.7856 18.8702 53.7835H59.8871C63.4814 53.7835 66.3885 50.7588 66.3885 47.0466C66.3885 43.3334 63.4814 40.3097 59.8882 40.3097H23.4691C23.2172 40.3104 22.9701 40.2413 22.7553 40.1103C22.5405 39.9792 22.3665 39.7913 22.2527 39.5675C22.1468 39.3556 21.8821 38.7726 22.3056 38.083C23.7327 35.9081 25.3187 33.7858 27.0104 31.8764C35.732 21.8523 47.6772 15.3283 60.6801 13.419C64.3273 12.8887 66.9168 9.44116 66.3885 5.78067C65.9121 2.49234 63.06 0 59.7294 0C59.4118 0 59.0942 -1.96377e-08 58.7765 0.0527145C42.6029 2.38691 27.6975 10.5555 16.9147 22.9666C5.97315 35.5369 0 51.6075 0 68.2631C0 83.2203 4.70378 97.488 13.637 109.475C14.2628 110.313 15.0759 110.993 16.0119 111.463C16.9479 111.932 17.9809 112.178 19.029 112.181C20.4761 112.179 21.8844 111.714 23.0456 110.854C23.7587 110.321 24.3591 109.653 24.8126 108.889C25.266 108.124 25.5636 107.278 25.6881 106.399C25.794 104.701 25.3187 102.951 24.261 101.519ZM21.5656 109.157C20.7864 109.736 19.8421 110.051 18.8702 110.058C17.496 110.058 16.1747 109.423 15.2759 108.256C6.66024 96.6921 2.11421 82.902 2.11421 68.3686C2.11421 52.2443 7.92855 36.6503 18.4996 24.5038C28.9659 12.4638 43.3429 4.61357 58.9883 2.33314C59.2 2.28043 59.4118 2.28043 59.6235 2.28043C60.7078 2.28444 61.7541 2.67839 62.5697 3.38976C63.3854 4.10112 63.9156 5.082 64.0626 6.15178C64.4331 8.59246 62.7413 10.8729 60.2577 11.244C46.7254 13.2071 34.2519 20.0484 25.2128 30.4447C23.4371 32.482 21.812 34.6448 20.3502 36.9159C18.7643 39.3556 20.509 42.5912 23.4162 42.5912H59.8352C62.2131 42.5912 64.1155 44.607 64.1155 47.0993C64.1155 49.5927 62.2131 51.6075 59.8342 51.6075H18.8172C17.2555 51.6015 15.7407 52.1388 14.5346 53.1267C13.3284 54.1146 12.5065 55.491 12.211 57.0181C11.4671 60.7738 11.0948 64.5932 11.0993 68.4213C11.0993 80.9389 15.0641 92.8734 22.5173 102.898C23.9445 104.861 23.521 107.671 21.5656 109.157V109.157Z" fill="white"/>
<path d="M106.561 40.3126H78.2821C74.5819 40.3126 71.5689 43.3352 71.5689 47.0484C71.5689 50.7606 74.5819 53.7853 78.281 53.7853H106.561C110.261 53.7853 113.273 50.7606 113.273 47.0484C113.273 43.3352 110.261 40.3115 106.561 40.3115V40.3126ZM106.561 51.5566H78.2821C75.7973 51.5566 73.789 49.5408 73.789 47.0484C73.789 44.555 75.7973 42.5403 78.2821 42.5403H106.56C109.045 42.5403 111.053 44.555 111.053 47.0484C111 49.5408 108.992 51.5566 106.561 51.5566V51.5566ZM27.1154 60.3609C23.4164 60.3609 20.4033 63.3846 20.4033 67.0979C20.4033 80.3577 25.3718 92.8752 34.4628 102.264C43.5548 111.705 55.7107 116.955 68.6088 116.955C81.5058 116.955 93.6628 111.758 102.755 102.264C111.793 92.8752 116.814 80.3577 116.814 67.0979C116.814 63.3846 113.802 60.3609 110.102 60.3609H27.1154ZM114.542 67.0979C114.542 79.7746 109.785 91.7081 101.116 100.672C92.4474 109.689 80.8716 114.675 68.5559 114.675C56.2401 114.675 44.6643 109.689 35.9958 100.672C27.3272 91.7081 22.5705 79.7746 22.5705 67.0979C22.5705 64.6045 24.5788 62.5887 27.0636 62.5887H110.049C112.533 62.5887 114.542 64.6045 114.542 67.0979V67.0979Z" fill="#903FFF"/>
<path d="M68.6094 105.71C87.5854 105.71 103.231 90.7527 105.399 71.6047H31.8198C33.987 90.7527 49.6323 105.71 68.6094 105.71ZM91.762 94.2002C85.3664 100.194 77.1732 103.482 68.6105 103.482C60.0478 103.482 51.8545 100.193 45.459 94.2002C39.6976 88.8434 35.8386 81.6827 34.4644 73.8324H102.809C101.382 81.6289 97.5234 88.7896 91.762 94.2002ZM88.9596 24.6635C83.41 20.8449 76.1685 18.7764 68.5565 18.7764C60.8915 18.7764 53.5971 20.8976 48.0485 24.77C46.0921 26.149 45.2462 28.5886 45.9862 30.8691C46.3222 31.976 47.0076 32.9454 47.9408 33.6335C48.874 34.3217 50.0052 34.6917 51.1664 34.6888L85.9995 34.636C88.3784 34.636 90.4397 33.0968 91.1797 30.8164C91.8139 28.4832 90.968 26.0425 88.9596 24.6635V24.6635ZM88.9596 30.0741C88.5361 31.4004 87.3208 32.3018 85.9466 32.3018L51.1134 32.3546C49.7393 32.3546 48.5239 31.4531 48.1004 30.1268C47.678 28.8005 48.2063 27.3688 49.3168 26.5739C54.497 22.9661 61.368 21.0041 68.5565 21.0041C75.745 21.0041 82.563 22.9661 87.6913 26.5201C88.8537 27.3161 89.382 28.7478 88.9596 30.0731V30.0741Z" fill="#903FFF"/>
<path d="M179.197 66.4874H202.936V75.6718H179.197V66.4874ZM180.045 93.6875H168.6V44.2327H205.973V53.4172H180.045V93.6875ZM232.329 93.6875V86.2693L231.623 84.6443V71.3622C231.623 69.0072 230.893 67.1703 229.432 65.8515C228.019 64.5327 225.829 63.8733 222.862 63.8733C220.837 63.8733 218.835 64.203 216.857 64.8624C214.926 65.4747 213.277 66.3225 211.911 67.4058L207.955 59.705C210.027 58.2449 212.524 57.1145 215.444 56.3138C218.364 55.5131 221.331 55.1128 224.346 55.1128C230.139 55.1128 234.637 56.4787 237.84 59.2105C241.043 61.9422 242.644 66.2048 242.644 71.998V93.6875H232.329ZM220.743 94.2527C217.775 94.2527 215.232 93.7581 213.112 92.7691C210.993 91.7329 209.368 90.3434 208.238 88.6007C207.107 86.858 206.542 84.9034 206.542 82.7368C206.542 80.476 207.084 78.4978 208.167 76.8022C209.297 75.1066 211.064 73.7878 213.466 72.8458C215.868 71.8567 219 71.3622 222.862 71.3622H232.965V77.7913H224.063C221.473 77.7913 219.683 78.2152 218.694 79.063C217.752 79.9108 217.281 80.9706 217.281 82.2423C217.281 83.6552 217.822 84.7856 218.906 85.6334C220.036 86.4341 221.567 86.8345 223.498 86.8345C225.335 86.8345 226.983 86.4106 228.443 85.5628C229.903 84.6679 230.963 83.3726 231.623 81.6771L233.318 86.7638C232.517 89.213 231.057 91.0735 228.938 92.3452C226.818 93.6169 224.087 94.2527 220.743 94.2527ZM265.83 94.2527C262.675 94.2527 259.849 93.6404 257.352 92.4158C254.903 91.1912 252.996 89.3308 251.63 86.8345C250.264 84.2911 249.581 81.0648 249.581 77.1555V55.678H260.602V75.5305C260.602 78.6862 261.262 81.0177 262.58 82.5248C263.946 83.9849 265.854 84.715 268.303 84.715C269.999 84.715 271.506 84.3617 272.825 83.6552C274.143 82.9016 275.18 81.7713 275.933 80.2641C276.687 78.7098 277.064 76.7787 277.064 74.4708V55.678H288.085V93.6875H277.629V83.2313L279.536 86.2693C278.265 88.9069 276.381 90.9086 273.884 92.2745C271.435 93.5933 268.75 94.2527 265.83 94.2527ZM313.838 94.2527C309.741 94.2527 306.09 93.4285 302.888 91.78C299.685 90.0844 297.165 87.7529 295.328 84.7856C293.538 81.8184 292.643 78.4507 292.643 74.6827C292.643 70.8677 293.538 67.5 295.328 64.5798C297.165 61.6125 299.685 59.3047 302.888 57.6562C306.09 55.9606 309.741 55.1128 313.838 55.1128C317.842 55.1128 321.327 55.9606 324.295 57.6562C327.262 59.3047 329.452 61.6832 330.865 64.7918L322.316 69.384C321.327 67.5942 320.079 66.2754 318.572 65.4276C317.112 64.5798 315.51 64.1559 313.768 64.1559C311.884 64.1559 310.188 64.5798 308.681 65.4276C307.174 66.2754 305.973 67.4765 305.078 69.0308C304.23 70.5851 303.806 72.469 303.806 74.6827C303.806 76.8964 304.23 78.7804 305.078 80.3347C305.973 81.889 307.174 83.09 308.681 83.9378C310.188 84.7856 311.884 85.2095 313.768 85.2095C315.51 85.2095 317.112 84.8092 318.572 84.0085C320.079 83.1607 321.327 81.8184 322.316 79.9815L330.865 84.6443C329.452 87.7058 327.262 90.0844 324.295 91.78C321.327 93.4285 317.842 94.2527 313.838 94.2527ZM352.765 94.2527C348.432 94.2527 344.617 93.4049 341.32 91.7093C338.07 90.0137 335.55 87.7058 333.76 84.7856C331.971 81.8184 331.076 78.4507 331.076 74.6827C331.076 70.8677 331.947 67.5 333.69 64.5798C335.48 61.6125 337.905 59.3047 340.967 57.6562C344.028 55.9606 347.49 55.1128 351.352 55.1128C355.073 55.1128 358.417 55.9135 361.385 57.5149C364.399 59.0692 366.777 61.3299 368.52 64.2972C370.263 67.2174 371.134 70.7264 371.134 74.824C371.134 75.2479 371.111 75.7425 371.064 76.3077C371.016 76.8258 370.969 77.3203 370.922 77.7913H340.048V71.3622H365.129L360.89 73.2697C360.89 71.2915 360.49 69.5724 359.689 68.1123C358.888 66.6522 357.781 65.5218 356.368 64.7211C354.955 63.8733 353.307 63.4494 351.423 63.4494C349.539 63.4494 347.867 63.8733 346.407 64.7211C344.994 65.5218 343.887 66.6758 343.086 68.183C342.286 69.6431 341.885 71.3858 341.885 73.411V75.1066C341.885 77.179 342.333 79.0159 343.228 80.6173C344.17 82.1716 345.465 83.3726 347.113 84.2204C348.809 85.0211 350.787 85.4215 353.048 85.4215C355.073 85.4215 356.839 85.1153 358.347 84.503C359.901 83.8907 361.314 82.9723 362.586 81.7477L368.449 88.1062C366.707 90.0844 364.517 91.6151 361.879 92.6984C359.241 93.7346 356.204 94.2527 352.765 94.2527ZM391.189 94.2527C386.714 94.2527 383.229 93.1223 380.733 90.8615C378.236 88.5536 376.988 85.1389 376.988 80.6173V47.2707H388.01V80.476C388.01 82.0774 388.433 83.3255 389.281 84.2204C390.129 85.0682 391.283 85.4921 392.743 85.4921C394.486 85.4921 395.969 85.0211 397.194 84.0791L400.161 91.8506C399.031 92.6513 397.665 93.2636 396.064 93.6875C394.509 94.0643 392.884 94.2527 391.189 94.2527ZM371.124 65.0037V56.5258H397.477V65.0037H371.124ZM445.149 94.5353C441.334 94.5353 437.778 93.923 434.481 92.6984C431.231 91.4267 428.405 89.6369 426.003 87.329C423.601 85.0211 421.717 82.3129 420.351 79.2043C419.032 76.0957 418.373 72.681 418.373 68.9601C418.373 65.2392 419.032 61.8245 420.351 58.7159C421.717 55.6073 423.601 52.8991 426.003 50.5912C428.452 48.2833 431.302 46.5171 434.552 45.2925C437.802 44.0208 441.358 43.3849 445.22 43.3849C449.506 43.3849 453.368 44.1385 456.806 45.6457C460.292 47.1058 463.212 49.2724 465.567 52.1455L458.219 58.9279C456.524 56.9968 454.64 55.5602 452.567 54.6182C450.495 53.6291 448.234 53.1346 445.785 53.1346C443.477 53.1346 441.358 53.5114 439.426 54.265C437.495 55.0186 435.823 56.1019 434.41 57.5149C432.997 58.9279 431.891 60.5999 431.09 62.531C430.336 64.4621 429.959 66.6051 429.959 68.9601C429.959 71.3151 430.336 73.4581 431.09 75.3892C431.891 77.3203 432.997 78.9924 434.41 80.4054C435.823 81.8184 437.495 82.9016 439.426 83.6552C441.358 84.4088 443.477 84.7856 445.785 84.7856C448.234 84.7856 450.495 84.3146 452.567 83.3726C454.64 82.3836 456.524 80.8999 458.219 78.9217L465.567 85.7041C463.212 88.5772 460.292 90.7673 456.806 92.2745C453.368 93.7817 449.482 94.5353 445.149 94.5353ZM469.693 93.6875V55.678H480.22V66.4167L478.736 63.3081C479.866 60.6234 481.68 58.5982 484.176 57.2323C486.672 55.8193 489.71 55.1128 493.29 55.1128V65.2863C492.819 65.2392 492.395 65.2157 492.018 65.2157C491.641 65.1686 491.241 65.145 490.817 65.145C487.803 65.145 485.353 66.0164 483.469 67.7591C481.633 69.4547 480.714 72.1158 480.714 75.7425V93.6875H469.693ZM503.132 107.959C501.154 107.959 499.199 107.653 497.268 107.04C495.337 106.428 493.759 105.58 492.535 104.497L496.562 96.6548C497.409 97.4084 498.375 97.9971 499.458 98.421C500.589 98.8449 501.696 99.0569 502.779 99.0569C504.333 99.0569 505.558 98.6801 506.453 97.9265C507.395 97.22 508.242 96.0189 508.996 94.3233L510.974 89.6605L511.822 88.4594L525.457 55.678H536.055L518.887 96.0189C517.662 99.0804 516.249 101.483 514.648 103.225C513.094 104.968 511.351 106.192 509.42 106.899C507.536 107.605 505.44 107.959 503.132 107.959ZM509.632 95.1711L492.676 55.678H504.051L517.191 87.4703L509.632 95.1711ZM560.193 94.2527C556.99 94.2527 554.187 93.5462 551.785 92.1332C549.383 90.7202 547.499 88.5772 546.133 85.7041C544.815 82.7839 544.155 79.1101 544.155 74.6827C544.155 70.2083 544.791 66.5345 546.063 63.6614C547.334 60.7883 549.171 58.6453 551.573 57.2323C553.976 55.8193 556.849 55.1128 560.193 55.1128C563.772 55.1128 566.975 55.937 569.801 57.5855C572.674 59.1869 574.935 61.4477 576.583 64.3679C578.279 67.2881 579.127 70.7264 579.127 74.6827C579.127 78.6862 578.279 82.1481 576.583 85.0682C574.935 87.9884 572.674 90.2492 569.801 91.8506C566.975 93.452 563.772 94.2527 560.193 94.2527ZM537.726 107.394V55.678H548.253V63.4494L548.041 74.7534L548.747 85.9867V107.394H537.726ZM558.285 85.2095C560.122 85.2095 561.747 84.7856 563.16 83.9378C564.62 83.09 565.774 81.889 566.622 80.3347C567.517 78.7333 567.964 76.8493 567.964 74.6827C567.964 72.469 567.517 70.5851 566.622 69.0308C565.774 67.4765 564.62 66.2754 563.16 65.4276C561.747 64.5798 560.122 64.1559 558.285 64.1559C556.448 64.1559 554.8 64.5798 553.34 65.4276C551.88 66.2754 550.726 67.4765 549.878 69.0308C549.03 70.5851 548.606 72.469 548.606 74.6827C548.606 76.8493 549.03 78.7333 549.878 80.3347C550.726 81.889 551.88 83.09 553.34 83.9378C554.8 84.7856 556.448 85.2095 558.285 85.2095ZM599.222 94.2527C594.747 94.2527 591.262 93.1223 588.766 90.8615C586.269 88.5536 585.021 85.1389 585.021 80.6173V47.2707H596.042V80.476C596.042 82.0774 596.466 83.3255 597.314 84.2204C598.162 85.0682 599.316 85.4921 600.776 85.4921C602.519 85.4921 604.002 85.0211 605.227 84.0791L608.194 91.8506C607.064 92.6513 605.698 93.2636 604.097 93.6875C602.542 94.0643 600.917 94.2527 599.222 94.2527ZM579.157 65.0037V56.5258H605.51V65.0037H579.157ZM628.468 94.2527C624.418 94.2527 620.815 93.4049 617.659 91.7093C614.55 90.0137 612.078 87.7058 610.241 84.7856C608.451 81.8184 607.556 78.4507 607.556 74.6827C607.556 70.8677 608.451 67.5 610.241 64.5798C612.078 61.6125 614.55 59.3047 617.659 57.6562C620.815 55.9606 624.418 55.1128 628.468 55.1128C632.472 55.1128 636.052 55.9606 639.207 57.6562C642.363 59.3047 644.836 61.589 646.625 64.5092C648.415 67.4294 649.31 70.8206 649.31 74.6827C649.31 78.4507 648.415 81.8184 646.625 84.7856C644.836 87.7058 642.363 90.0137 639.207 91.7093C636.052 93.4049 632.472 94.2527 628.468 94.2527ZM628.468 85.2095C630.305 85.2095 631.954 84.7856 633.414 83.9378C634.874 83.09 636.028 81.889 636.876 80.3347C637.724 78.7333 638.147 76.8493 638.147 74.6827C638.147 72.469 637.724 70.5851 636.876 69.0308C636.028 67.4765 634.874 66.2754 633.414 65.4276C631.954 64.5798 630.305 64.1559 628.468 64.1559C626.632 64.1559 624.983 64.5798 623.523 65.4276C622.063 66.2754 620.885 67.4765 619.991 69.0308C619.143 70.5851 618.719 72.469 618.719 74.6827C618.719 76.8493 619.143 78.7333 619.991 80.3347C620.885 81.889 622.063 83.09 623.523 83.9378C624.983 84.7856 626.632 85.2095 628.468 85.2095Z" fill="white"/>
</svg>
