<svg width="105" height="100" viewBox="0 0 105 100" fill="none" xmlns="http://www.w3.org/2000/svg">
<g clip-path="url(#clip0_8993_9172)">
<path d="M81.4579 7.82467C93.4831 16.0909 101.69 28.7672 104.414 43.164C104.889 45.8777 105.095 48.5508 105.076 51.3041C105.073 51.8555 105.076 52.4065 105.08 52.9579C105.084 56.354 104.711 59.7035 103.878 63.0004C103.828 63.2027 103.777 63.4049 103.726 63.6132C102.856 67.0356 101.66 70.2615 100.121 73.4375C100.028 73.6297 100.028 73.6297 99.9343 73.8259C98.2107 77.3717 95.8688 80.625 93.2899 83.5937C93.1939 83.7043 93.0979 83.8149 92.999 83.9288C85.7114 92.2394 75.5175 97.8718 64.6003 99.6093C64.3856 99.6442 64.171 99.6792 63.9498 99.7151C61.7816 100.029 59.6319 100.066 57.4433 100.062C56.8331 100.061 56.2232 100.066 55.6131 100.071C52.2825 100.081 49.0931 99.9194 46.0594 98.4375C45.8184 98.3303 45.5769 98.224 45.3351 98.1185C42.1653 96.7191 39.6002 94.8735 38.1955 91.5992C37.1284 88.7115 36.9529 85.2707 38.2527 82.4218C39.6539 79.5278 41.9325 77.5716 44.8777 76.3755C46.1874 75.928 47.3191 75.7208 48.6942 75.7446C48.9013 75.7448 48.9013 75.7448 49.1127 75.745C49.9155 75.7516 50.6855 75.8227 51.4821 75.9309C58.5786 76.6799 65.6651 74.5589 71.236 70.1171C76.8812 65.4403 80.195 58.9466 80.95 51.6795C81.5053 45.3186 79.7334 38.7307 75.92 33.5937C75.805 33.4353 75.6901 33.277 75.5716 33.1138C73.277 30.096 70.4332 27.6657 67.1009 25.8789C64.1912 24.3075 62.0739 21.9601 61.0873 18.75C60.2423 15.4303 60.7845 12.2641 62.4984 9.32842C64.1841 6.69558 66.8271 5.09856 69.8412 4.3748C74.2502 3.55427 77.8835 5.48834 81.4579 7.82467ZM71.0629 14.6431C70.3652 15.5476 69.8495 16.3758 69.7478 17.5293C69.7332 17.6854 69.7186 17.8415 69.7036 18.0023C69.6941 18.1201 69.6845 18.2379 69.6746 18.3593C69.7796 18.4201 69.8846 18.4809 69.9927 18.5435C72.1433 19.7949 74.199 21.0613 76.1152 22.6562C76.2833 22.7936 76.2833 22.7936 76.4549 22.9338C83.759 28.9144 88.8581 38.7071 89.881 48.1011C90.6601 56.9428 88.3937 65.9016 82.6693 72.7941C82.2628 73.2618 81.8425 73.7145 81.4159 74.1638C81.0629 74.5369 80.7409 74.9161 80.421 75.3173C79.6256 76.2538 78.6411 76.9818 77.6765 77.7343C77.4928 77.8799 77.3092 78.0254 77.12 78.1753C71.2491 82.7203 64.1906 85.0071 56.7936 84.9853C56.537 84.9861 56.2804 84.9868 56.016 84.9876C54.6959 84.9863 53.4179 84.9401 52.1096 84.7656C50.735 84.6522 49.6009 84.8224 48.4014 85.5468C47.4159 86.4293 46.5205 87.3898 46.4116 88.7611C46.4161 88.9129 46.4207 89.0647 46.4253 89.2211C46.4289 89.3755 46.4324 89.5298 46.436 89.6888C46.4428 89.8622 46.4428 89.8622 46.4497 90.039C50.8517 92.808 59.1354 91.1498 63.8715 90.1054C70.3382 88.6152 76.3623 85.6007 81.3847 81.25C81.5417 81.1145 81.6987 80.9791 81.8604 80.8395C89.5139 74.0886 94.3961 65.0144 95.8271 54.8828C95.8468 54.7546 95.8665 54.6265 95.8868 54.4944C96.6998 48.4697 95.9795 42.0638 94.0706 36.3281C94.0195 36.1722 93.9685 36.0163 93.9159 35.8557C92.2048 30.7062 89.4991 26.1085 85.9597 22.0117C85.7082 21.7149 85.4697 21.4072 85.2331 21.0983C85.1224 20.9679 85.0117 20.8375 84.8977 20.7031C84.7689 20.7031 84.6401 20.7031 84.5074 20.7031C84.4489 20.5467 84.4489 20.5467 84.3892 20.3872C83.996 19.7149 83.4572 19.2475 82.885 18.7255C82.7629 18.6134 82.6407 18.5013 82.5149 18.3858C78.6942 14.7832 78.6942 14.7832 73.9721 13.2156C72.8202 13.3438 71.8657 13.803 71.0629 14.6431Z" fill="#E80A4D"/>
<path d="M47.082 -0.0679957C47.4629 -0.0730284 47.8437 -0.0808339 48.2245 -0.0887262C51.5911 -0.0944519 54.0424 1.19745 56.4033 3.51569C56.514 3.62168 56.6247 3.72768 56.7388 3.83688C58.9617 6.17384 59.4516 9.18086 59.3911 12.2635C59.2616 15.2542 57.7768 17.7834 55.641 19.8151C53.3042 21.8235 50.7142 22.4808 47.7062 22.7418C41.4532 23.3555 35.8425 25.5182 31.1824 29.8212C31.0739 29.921 30.9654 30.0209 30.8536 30.1238C30.5875 30.3688 30.3216 30.6141 30.0557 30.8594C30.2951 30.8606 30.5344 30.8617 30.7809 30.8629C33.0434 30.8741 35.3059 30.8883 37.5684 30.9055C38.7314 30.9142 39.8943 30.9219 41.0574 30.9271C42.1811 30.9322 43.3048 30.9401 44.4285 30.9499C44.8558 30.9531 45.2831 30.9554 45.7104 30.9566C49.7706 30.9694 53.2517 31.431 56.2981 34.4033C58.6823 37.0866 59.5478 39.9618 59.4162 43.5296C59.2207 46.4681 57.7758 48.902 55.7081 50.94C53.2334 53.0406 50.4953 53.7678 47.3132 53.7733C47.0476 53.7751 46.782 53.7771 46.5165 53.7792C45.7996 53.7845 45.0828 53.7875 44.3659 53.79C43.6152 53.7931 42.8646 53.7983 42.1139 53.8033C40.6942 53.8124 39.2745 53.8196 37.8548 53.8261C36.2378 53.8336 34.6208 53.8432 33.0037 53.8531C29.6791 53.8732 26.3544 53.8907 23.0297 53.9063C23.2073 54.6169 23.3878 55.3267 23.5687 56.0364C23.6183 56.2351 23.668 56.4339 23.7191 56.6386C24.7143 60.5198 26.6535 63.9797 29.2751 66.9922C29.3792 67.1201 29.4834 67.248 29.5907 67.3798C30.3146 68.2648 31.139 68.9867 32.0074 69.7266C34.8371 72.1849 36.8189 74.711 37.1367 78.6019C37.2169 81.6512 36.2846 84.5045 34.2518 86.8165C33.9632 87.1135 33.6708 87.407 33.3736 87.6954C33.2636 87.8072 33.1537 87.9189 33.0404 88.0341C30.9281 90.0297 28.0571 90.726 25.2326 90.6933C21.6962 90.5763 19.1225 88.8264 16.5892 86.5235C16.4846 86.4296 16.3801 86.3357 16.2723 86.2389C15.5895 85.6257 14.9159 85.0037 14.2472 84.3751C14.0551 84.1953 14.0551 84.1953 13.8591 84.0119C13.0253 83.2062 12.3 82.3228 11.5751 81.4187C11.2896 81.0643 10.9999 80.7134 10.7045 80.3673C4.24947 72.7628 0.0321979 62.1701 -0.0465195 52.1744C-0.048431 51.9743 -0.0503424 51.7743 -0.0523118 51.5681C-0.115752 43.2096 -0.115752 43.2096 0.780654 39.2579C0.823518 39.0649 0.866381 38.8719 0.910544 38.6731C3.42962 27.633 9.66606 17.2559 18.736 10.3516C18.8394 10.2713 18.9428 10.1909 19.0493 10.1082C25.6594 4.98338 33.2271 2.00226 41.3755 0.390686C41.5224 0.361418 41.6694 0.332149 41.8209 0.301994C43.5582 -0.025469 45.319 -0.045659 47.082 -0.0679957ZM23.4201 16.6016C23.3127 16.6898 23.2053 16.7781 23.0946 16.8689C20.3558 19.1192 17.9117 21.5561 15.8085 24.4141C15.685 24.58 15.5615 24.746 15.4342 24.9169C9.08296 33.7164 6.36489 44.9306 8.00184 55.6641C9.61664 65.6125 14.7194 75.4475 22.8346 81.6407C22.9993 81.7769 23.1641 81.9131 23.3339 82.0534C24.4317 82.9024 25.3723 82.9694 26.7379 82.8126C27.8754 82.4269 28.5694 81.6385 29.1287 80.6031C29.4563 79.4282 29.3904 78.4322 28.8047 77.3705C28.0155 76.3091 26.9349 75.4947 25.929 74.6476C20.0656 69.6522 15.904 61.5116 15.1795 53.8355C15.0348 51.6809 15.2471 49.9139 16.6258 48.1812C17.6431 47.0973 18.9392 46.3353 20.4402 46.2637C20.6458 46.2632 20.8515 46.2627 21.0635 46.2622C21.4184 46.2606 21.4184 46.2606 21.7806 46.2589C22.0422 46.2587 22.3039 46.2585 22.5656 46.2583C22.8417 46.2574 23.1177 46.2564 23.3938 46.2553C23.9881 46.2531 24.5825 46.2515 25.1768 46.2502C26.1177 46.2481 27.0586 46.2442 27.9995 46.2398C30.6749 46.2278 33.3504 46.2172 36.0259 46.2107C37.5038 46.2071 38.9816 46.2015 40.4594 46.1935C41.2408 46.1894 42.0221 46.1864 42.8035 46.186C43.5393 46.1855 44.2751 46.1824 45.0108 46.1773C45.4074 46.1752 45.804 46.176 46.2005 46.1769C47.8052 46.1624 49.112 45.9998 50.5117 45.1905C51.2195 44.4215 51.6672 43.572 51.7582 42.5187C51.6924 41.4314 51.3289 40.423 50.5483 39.6485C49.2508 38.851 48.237 38.7569 46.7328 38.773C46.5117 38.7723 46.2907 38.7715 46.0629 38.7707C45.5847 38.7695 45.1066 38.7702 44.6285 38.7724C43.8701 38.7757 43.1119 38.7743 42.3536 38.7715C40.6062 38.7659 38.8589 38.7679 37.1115 38.7701C35.3831 38.7721 33.6548 38.7711 31.9263 38.7649C31.1821 38.7635 30.438 38.7668 29.6938 38.7702C29.2333 38.7691 28.7729 38.7677 28.3124 38.7662C28.1079 38.7684 27.9034 38.7706 27.6928 38.7729C25.6037 38.7558 23.7579 38.2536 22.2315 36.776C20.7998 35.0562 20.5265 33.2322 20.6877 31.0547C21.034 29.4766 21.9812 28.3356 23.0297 27.1485C23.1912 26.9632 23.3528 26.7779 23.5192 26.587C29.5227 19.8036 37.7491 15.7098 46.7913 15.0391C47.0563 15.0254 47.0563 15.0254 47.3266 15.0114C48.7374 14.9194 49.943 14.582 50.9143 13.501C51.6323 12.4442 51.8098 11.6352 51.6294 10.386C51.3625 9.30813 50.6588 8.6169 49.7676 8.00787C43.032 4.15605 28.4428 12.3877 23.4201 16.6016Z" fill="#7B39EC"/>
</g>
<defs>
<clipPath id="clip0_8993_9172">
<rect width="105" height="100" fill="white"/>
</clipPath>
</defs>
</svg>
