<svg width="241" height="50" viewBox="0 0 241 50" fill="none" xmlns="http://www.w3.org/2000/svg">
<g clip-path="url(#clip0_8958_7436)">
<path d="M41.1168 3.9127C47.1867 8.04582 51.329 14.384 52.7044 21.5824C52.9438 22.9392 53.0478 24.2758 53.0384 25.6524C53.0368 25.9281 53.0384 26.2036 53.0403 26.4793C53.0424 28.1774 52.8539 29.8521 52.4335 31.5006C52.4082 31.6017 52.3829 31.7028 52.3568 31.807C51.9176 33.5182 51.3142 35.1311 50.5371 36.7191C50.4905 36.8152 50.4905 36.8152 50.443 36.9133C49.573 38.6862 48.3908 40.3129 47.0891 41.7972C47.0407 41.8525 46.9922 41.9078 46.9423 41.9648C43.2638 46.1201 38.1183 48.9362 32.6077 49.805C32.4994 49.8225 32.391 49.8399 32.2794 49.8579C31.1849 50.0149 30.0999 50.0335 28.9951 50.0312C28.6872 50.0309 28.3793 50.0332 28.0713 50.0356C26.3902 50.0409 24.7803 49.9601 23.249 49.2191C23.1273 49.1655 23.0054 49.1124 22.8834 49.0596C21.2834 48.3599 19.9886 47.4371 19.2796 45.8C18.7409 44.3561 18.6523 42.6357 19.3085 41.2113C20.0157 39.7643 21.1659 38.7862 22.6525 38.1881C23.3136 37.9644 23.8848 37.8608 24.5789 37.8727C24.6835 37.8728 24.6835 37.8728 24.7902 37.8728C25.1954 37.8762 25.5841 37.9117 25.9861 37.9658C29.5682 38.3403 33.1452 37.2798 35.9572 35.0589C38.8067 32.7205 40.4793 29.4736 40.8604 25.8401C41.1407 22.6597 40.2463 19.3657 38.3215 16.7972C38.2634 16.718 38.2054 16.6389 38.1456 16.5573C36.9874 15.0483 35.5519 13.8332 33.8699 12.9398C32.4012 12.1541 31.3325 10.9804 30.8345 9.37535C30.408 7.71554 30.6817 6.13241 31.5468 4.66458C32.3977 3.34816 33.7317 2.54965 35.2531 2.18776C37.4786 1.7775 39.3126 2.74454 41.1168 3.9127ZM35.8698 7.32189C35.5176 7.77416 35.2573 8.18828 35.206 8.76499C35.1986 8.84304 35.1913 8.92109 35.1837 9.00151C35.1788 9.06042 35.174 9.11933 35.1691 9.18003C35.222 9.21042 35.275 9.2408 35.3296 9.27211C36.4152 9.89783 37.4528 10.531 38.42 11.3285C38.5049 11.3972 38.5049 11.3972 38.5915 11.4673C42.2783 14.4575 44.8521 19.3539 45.3684 24.0509C45.7617 28.4718 44.6177 32.9511 41.7282 36.3974C41.5231 36.6312 41.3109 36.8576 41.0956 37.0823C40.9174 37.2688 40.7549 37.4584 40.5934 37.659C40.1919 38.1273 39.695 38.4913 39.2081 38.8675C39.1154 38.9403 39.0227 39.0131 38.9272 39.088C35.9638 41.3605 32.4009 42.5039 28.6672 42.493C28.5377 42.4934 28.4081 42.4938 28.2747 42.4942C27.6083 42.4935 26.9633 42.4704 26.3029 42.3832C25.6091 42.3265 25.0366 42.4116 24.4311 42.7738C23.9337 43.215 23.4817 43.6953 23.4268 44.3809C23.429 44.4568 23.4313 44.5327 23.4337 44.6109C23.4355 44.6881 23.4372 44.7653 23.4391 44.8448C23.4425 44.9315 23.4425 44.9315 23.446 45.0199C25.6679 46.4044 29.8492 45.5753 32.2398 45.0531C35.504 44.3079 38.5447 42.8007 41.0798 40.6253C41.1591 40.5576 41.2383 40.4899 41.32 40.4201C45.1831 37.0447 47.6475 32.5076 48.3698 27.4418C48.3797 27.3777 48.3897 27.3136 48.3999 27.2476C48.8103 24.2352 48.4467 21.0323 47.4832 18.1644C47.4574 18.0865 47.4317 18.0085 47.4051 17.9282C46.5414 15.3534 45.1757 13.0546 43.3891 11.0062C43.2622 10.8578 43.1418 10.7039 43.0224 10.5495C42.9665 10.4843 42.9106 10.4191 42.8531 10.3519C42.788 10.3519 42.723 10.3519 42.656 10.3519C42.6265 10.2737 42.6265 10.2737 42.5964 10.194C42.3979 9.85783 42.126 9.62411 41.8372 9.36314C41.7755 9.30708 41.7138 9.25102 41.6503 9.19327C39.7218 7.39194 39.7218 7.39194 37.3383 6.60816C36.7568 6.67229 36.275 6.90189 35.8698 7.32189Z" fill="#E80A4D"/>
<path d="M23.7651 -0.0335706C23.9573 -0.036087 24.1495 -0.0399897 24.3417 -0.0439358C26.0411 -0.0467987 27.2784 0.599153 28.4701 1.75827C28.526 1.81127 28.5819 1.86427 28.6394 1.91887C29.7615 3.08735 30.0088 4.59086 29.9782 6.1322C29.9129 7.62754 29.1634 8.89211 28.0853 9.90799C26.9058 10.9122 25.5985 11.2408 24.0801 11.3713C20.9239 11.6782 18.0918 12.7596 15.7396 14.911C15.6848 14.961 15.63 15.0109 15.5736 15.0623C15.4393 15.1848 15.3051 15.3075 15.1709 15.4301C15.2917 15.4307 15.4125 15.4313 15.5369 15.4319C16.6789 15.4375 17.821 15.4446 18.963 15.4532C19.55 15.4575 20.137 15.4614 20.7241 15.464C21.2913 15.4665 21.8585 15.4705 22.4257 15.4754C22.6414 15.477 22.8571 15.4781 23.0728 15.4787C25.1222 15.4851 26.8793 15.7159 28.417 17.2021C29.6205 18.5437 30.0573 19.9813 29.9909 21.7652C29.8922 23.2345 29.1629 24.4514 28.1192 25.4704C26.8701 26.5207 25.488 26.8843 23.8818 26.8871C23.7477 26.888 23.6137 26.889 23.4796 26.89C23.1178 26.8927 22.7559 26.8942 22.3941 26.8955C22.0152 26.897 21.6363 26.8996 21.2574 26.9021C20.5408 26.9067 19.8242 26.9102 19.1076 26.9135C18.2913 26.9172 17.4751 26.9221 16.6589 26.927C14.9807 26.937 13.3026 26.9458 11.6244 26.9536C11.714 27.3089 11.8051 27.6638 11.8965 28.0186C11.9215 28.118 11.9466 28.2174 11.9724 28.3197C12.4747 30.2603 13.4536 31.9903 14.7768 33.4966C14.8294 33.5605 14.882 33.6245 14.9361 33.6903C15.3015 34.1328 15.7176 34.4938 16.156 34.8637C17.5843 36.0929 18.5847 37.3559 18.745 39.3014C18.7856 40.826 18.3149 42.2527 17.2889 43.4087C17.1432 43.5572 16.9956 43.7039 16.8456 43.8481C16.7901 43.904 16.7346 43.9599 16.6774 44.0175C15.6112 45.0153 14.162 45.3635 12.7364 45.3471C10.9513 45.2886 9.65219 44.4136 8.37347 43.2622C8.32069 43.2152 8.26791 43.1683 8.21353 43.1199C7.86888 42.8133 7.52884 42.5023 7.19132 42.188C7.09436 42.0981 7.09436 42.0981 6.99544 42.0064C6.57454 41.6035 6.20846 41.1618 5.84253 40.7098C5.69844 40.5326 5.55219 40.3571 5.40307 40.1841C2.14485 36.3818 0.0161267 31.0855 -0.0236068 26.0876C-0.0245717 25.9876 -0.0255365 25.8876 -0.0265305 25.7845C-0.0585528 21.6052 -0.0585527 21.6052 0.393919 19.6294C0.415555 19.5329 0.437191 19.4364 0.459482 19.337C1.73102 13.8169 4.87893 8.6284 9.45712 5.17624C9.50929 5.13607 9.56147 5.09589 9.61523 5.0545C12.9517 2.49211 16.7717 1.00156 20.8846 0.19577C20.9588 0.181136 21.033 0.166502 21.1095 0.151424C21.9864 -0.0123072 22.8752 -0.0224022 23.7651 -0.0335706ZM11.8214 8.30124C11.7672 8.34535 11.713 8.38945 11.6572 8.4349C10.2747 9.56002 9.04103 10.7785 7.97942 12.2075C7.91707 12.2904 7.85472 12.3734 7.79048 12.4589C4.5846 16.8586 3.21263 22.4657 4.0389 27.8325C4.85399 32.8067 7.42968 37.7242 11.5259 40.8208C11.6091 40.8889 11.6922 40.957 11.7779 41.0271C12.332 41.4516 12.8069 41.4851 13.4961 41.4067C14.0703 41.2139 14.4206 40.8197 14.7029 40.302C14.8683 39.7145 14.835 39.2165 14.5394 38.6857C14.141 38.155 13.5956 37.7478 13.0879 37.3242C10.1282 34.8265 8.02762 30.7562 7.6619 26.9182C7.58885 25.8409 7.69603 24.9574 8.39194 24.091C8.90543 23.5491 9.55967 23.1681 10.3173 23.1323C10.4211 23.132 10.5249 23.1318 10.6319 23.1315C10.8111 23.1307 10.8111 23.1307 10.9939 23.1299C11.126 23.1298 11.258 23.1297 11.3901 23.1296C11.5295 23.1291 11.6688 23.1286 11.8082 23.1281C12.1082 23.127 12.4082 23.1262 12.7082 23.1255C13.1831 23.1245 13.658 23.1225 14.1329 23.1203C15.4834 23.1143 16.8339 23.109 18.1844 23.1058C18.9303 23.104 19.6763 23.1012 20.4222 23.0972C20.8166 23.0951 21.211 23.0936 21.6055 23.0934C21.9769 23.0932 22.3482 23.0916 22.7196 23.0891C22.9198 23.088 23.12 23.0884 23.3201 23.0889C24.1301 23.0816 24.7898 23.0003 25.4963 22.5957C25.8535 22.2112 26.0795 21.7864 26.1254 21.2598C26.0922 20.7161 25.9087 20.2119 25.5147 19.8247C24.8598 19.4259 24.3481 19.3789 23.5888 19.3869C23.4772 19.3866 23.3656 19.3862 23.2507 19.3858C23.0093 19.3852 22.768 19.3855 22.5266 19.3866C22.1438 19.3883 21.7611 19.3876 21.3784 19.3862C20.4964 19.3834 19.6144 19.3844 18.7324 19.3855C17.8599 19.3865 16.9875 19.386 16.1151 19.3829C15.7394 19.3822 15.3638 19.3838 14.9882 19.3855C14.7557 19.385 14.5233 19.3843 14.2909 19.3835C14.1877 19.3846 14.0845 19.3857 13.9781 19.3869C12.9236 19.3783 11.992 19.1273 11.2215 18.3884C10.4988 17.5285 10.3608 16.6165 10.4422 15.5278C10.617 14.7387 11.0951 14.1682 11.6244 13.5747C11.7059 13.482 11.7875 13.3894 11.8715 13.2939C14.9018 9.90224 19.0542 7.85533 23.6184 7.51999C23.7521 7.51312 23.7521 7.51312 23.8885 7.50611C24.6007 7.46014 25.2092 7.29144 25.6994 6.75095C26.0619 6.22255 26.1515 5.81804 26.0604 5.19341C25.9257 4.65449 25.5705 4.30888 25.1207 4.00436C21.7208 2.07845 14.3567 6.1943 11.8214 8.30124Z" fill="#7B39EC"/>
</g>
<path d="M67.058 23.99H75.794V27.37H67.058V23.99ZM67.37 34H63.158V15.8H76.912V19.18H67.37V34ZM86.6112 34V31.27L86.3512 30.672V25.784C86.3512 24.9173 86.0826 24.2413 85.5452 23.756C85.0252 23.2707 84.2192 23.028 83.1272 23.028C82.3819 23.028 81.6452 23.1493 80.9172 23.392C80.2066 23.6173 79.5999 23.9293 79.0972 24.328L77.6412 21.494C78.4039 20.9567 79.3226 20.5407 80.3972 20.246C81.4719 19.9513 82.5639 19.804 83.6732 19.804C85.8052 19.804 87.4606 20.3067 88.6392 21.312C89.8179 22.3173 90.4072 23.886 90.4072 26.018V34H86.6112ZM82.3472 34.208C81.2552 34.208 80.3192 34.026 79.5392 33.662C78.7592 33.2807 78.1612 32.7693 77.7452 32.128C77.3292 31.4867 77.1212 30.7673 77.1212 29.97C77.1212 29.138 77.3206 28.41 77.7192 27.786C78.1352 27.162 78.7852 26.6767 79.6692 26.33C80.5532 25.966 81.7059 25.784 83.1272 25.784H86.8452V28.15H83.5692C82.6159 28.15 81.9572 28.306 81.5932 28.618C81.2466 28.93 81.0732 29.32 81.0732 29.788C81.0732 30.308 81.2726 30.724 81.6712 31.036C82.0872 31.3307 82.6506 31.478 83.3612 31.478C84.0372 31.478 84.6439 31.322 85.1812 31.01C85.7186 30.6807 86.1086 30.204 86.3512 29.58L86.9752 31.452C86.6806 32.3533 86.1432 33.038 85.3632 33.506C84.5832 33.974 83.5779 34.208 82.3472 34.208ZM98.9401 34.208C97.7788 34.208 96.7388 33.9827 95.8201 33.532C94.9188 33.0813 94.2168 32.3967 93.7141 31.478C93.2114 30.542 92.9601 29.3547 92.9601 27.916V20.012H97.0161V27.318C97.0161 28.4793 97.2588 29.3373 97.7441 29.892C98.2468 30.4293 98.9488 30.698 99.8501 30.698C100.474 30.698 101.029 30.568 101.514 30.308C101.999 30.0307 102.381 29.6147 102.658 29.06C102.935 28.488 103.074 27.7773 103.074 26.928V20.012H107.13V34H103.282V30.152L103.984 31.27C103.516 32.2407 102.823 32.9773 101.904 33.48C101.003 33.9653 100.015 34.208 98.9401 34.208ZM116.608 34.208C115.1 34.208 113.756 33.9047 112.578 33.298C111.399 32.674 110.472 31.816 109.796 30.724C109.137 29.632 108.808 28.3927 108.808 27.006C108.808 25.602 109.137 24.3627 109.796 23.288C110.472 22.196 111.399 21.3467 112.578 20.74C113.756 20.116 115.1 19.804 116.608 19.804C118.081 19.804 119.364 20.116 120.456 20.74C121.548 21.3467 122.354 22.222 122.874 23.366L119.728 25.056C119.364 24.3973 118.904 23.912 118.35 23.6C117.812 23.288 117.223 23.132 116.582 23.132C115.888 23.132 115.264 23.288 114.71 23.6C114.155 23.912 113.713 24.354 113.384 24.926C113.072 25.498 112.916 26.1913 112.916 27.006C112.916 27.8207 113.072 28.514 113.384 29.086C113.713 29.658 114.155 30.1 114.71 30.412C115.264 30.724 115.888 30.88 116.582 30.88C117.223 30.88 117.812 30.7327 118.35 30.438C118.904 30.126 119.364 29.632 119.728 28.956L122.874 30.672C122.354 31.7987 121.548 32.674 120.456 33.298C119.364 33.9047 118.081 34.208 116.608 34.208ZM130.933 34.208C129.339 34.208 127.935 33.896 126.721 33.272C125.525 32.648 124.598 31.7987 123.939 30.724C123.281 29.632 122.951 28.3927 122.951 27.006C122.951 25.602 123.272 24.3627 123.913 23.288C124.572 22.196 125.465 21.3467 126.591 20.74C127.718 20.116 128.992 19.804 130.413 19.804C131.783 19.804 133.013 20.0987 134.105 20.688C135.215 21.26 136.09 22.092 136.731 23.184C137.373 24.2587 137.693 25.55 137.693 27.058C137.693 27.214 137.685 27.396 137.667 27.604C137.65 27.7947 137.633 27.9767 137.615 28.15H126.253V25.784H135.483L133.923 26.486C133.923 25.758 133.776 25.1253 133.481 24.588C133.187 24.0507 132.779 23.6347 132.259 23.34C131.739 23.028 131.133 22.872 130.439 22.872C129.746 22.872 129.131 23.028 128.593 23.34C128.073 23.6347 127.666 24.0593 127.371 24.614C127.077 25.1513 126.929 25.7927 126.929 26.538V27.162C126.929 27.9247 127.094 28.6007 127.423 29.19C127.77 29.762 128.247 30.204 128.853 30.516C129.477 30.8107 130.205 30.958 131.037 30.958C131.783 30.958 132.433 30.8453 132.987 30.62C133.559 30.3947 134.079 30.0567 134.547 29.606L136.705 31.946C136.064 32.674 135.258 33.2373 134.287 33.636C133.317 34.0173 132.199 34.208 130.933 34.208ZM145.074 34.208C143.427 34.208 142.144 33.792 141.226 32.96C140.307 32.1107 139.848 30.854 139.848 29.19V16.918H143.904V29.138C143.904 29.7273 144.06 30.1867 144.372 30.516C144.684 30.828 145.108 30.984 145.646 30.984C146.287 30.984 146.833 30.8107 147.284 30.464L148.376 33.324C147.96 33.6187 147.457 33.844 146.868 34C146.296 34.1387 145.698 34.208 145.074 34.208ZM137.69 23.444V20.324H147.388V23.444H137.69ZM164.932 34.312C163.528 34.312 162.219 34.0867 161.006 33.636C159.81 33.168 158.77 32.5093 157.886 31.66C157.002 30.8107 156.308 29.814 155.806 28.67C155.32 27.526 155.078 26.2693 155.078 24.9C155.078 23.5307 155.32 22.274 155.806 21.13C156.308 19.986 157.002 18.9893 157.886 18.14C158.787 17.2907 159.836 16.6407 161.032 16.19C162.228 15.722 163.536 15.488 164.958 15.488C166.535 15.488 167.956 15.7653 169.222 16.32C170.504 16.8573 171.579 17.6547 172.446 18.712L169.742 21.208C169.118 20.4973 168.424 19.9687 167.662 19.622C166.899 19.258 166.067 19.076 165.166 19.076C164.316 19.076 163.536 19.2147 162.826 19.492C162.115 19.7693 161.5 20.168 160.98 20.688C160.46 21.208 160.052 21.8233 159.758 22.534C159.48 23.2447 159.342 24.0333 159.342 24.9C159.342 25.7667 159.48 26.5553 159.758 27.266C160.052 27.9767 160.46 28.592 160.98 29.112C161.5 29.632 162.115 30.0307 162.826 30.308C163.536 30.5853 164.316 30.724 165.166 30.724C166.067 30.724 166.899 30.5507 167.662 30.204C168.424 29.84 169.118 29.294 169.742 28.566L172.446 31.062C171.579 32.1193 170.504 32.9253 169.222 33.48C167.956 34.0347 166.526 34.312 164.932 34.312ZM173.964 34V20.012H177.838V23.964L177.292 22.82C177.708 21.832 178.375 21.0867 179.294 20.584C180.213 20.064 181.331 19.804 182.648 19.804V23.548C182.475 23.5307 182.319 23.522 182.18 23.522C182.041 23.5047 181.894 23.496 181.738 23.496C180.629 23.496 179.727 23.8167 179.034 24.458C178.358 25.082 178.02 26.0613 178.02 27.396V34H173.964ZM186.27 39.252C185.542 39.252 184.823 39.1393 184.112 38.914C183.402 38.6887 182.821 38.3767 182.37 37.978L183.852 35.092C184.164 35.3693 184.52 35.586 184.918 35.742C185.334 35.898 185.742 35.976 186.14 35.976C186.712 35.976 187.163 35.8373 187.492 35.56C187.839 35.3 188.151 34.858 188.428 34.234L189.156 32.518L189.468 32.076L194.486 20.012H198.386L192.068 34.858C191.618 35.9847 191.098 36.8687 190.508 37.51C189.936 38.1513 189.295 38.602 188.584 38.862C187.891 39.122 187.12 39.252 186.27 39.252ZM188.662 34.546L182.422 20.012H186.608L191.444 31.712L188.662 34.546ZM207.269 34.208C206.091 34.208 205.059 33.948 204.175 33.428C203.291 32.908 202.598 32.1193 202.095 31.062C201.61 29.9873 201.367 28.6353 201.367 27.006C201.367 25.3593 201.601 24.0073 202.069 22.95C202.537 21.8927 203.213 21.104 204.097 20.584C204.981 20.064 206.039 19.804 207.269 19.804C208.587 19.804 209.765 20.1073 210.805 20.714C211.863 21.3033 212.695 22.1353 213.301 23.21C213.925 24.2847 214.237 25.55 214.237 27.006C214.237 28.4793 213.925 29.7533 213.301 30.828C212.695 31.9027 211.863 32.7347 210.805 33.324C209.765 33.9133 208.587 34.208 207.269 34.208ZM199.001 39.044V20.012H202.875V22.872L202.797 27.032L203.057 31.166V39.044H199.001ZM206.567 30.88C207.243 30.88 207.841 30.724 208.361 30.412C208.899 30.1 209.323 29.658 209.635 29.086C209.965 28.4967 210.129 27.8033 210.129 27.006C210.129 26.1913 209.965 25.498 209.635 24.926C209.323 24.354 208.899 23.912 208.361 23.6C207.841 23.288 207.243 23.132 206.567 23.132C205.891 23.132 205.285 23.288 204.747 23.6C204.21 23.912 203.785 24.354 203.473 24.926C203.161 25.498 203.005 26.1913 203.005 27.006C203.005 27.8033 203.161 28.4967 203.473 29.086C203.785 29.658 204.21 30.1 204.747 30.412C205.285 30.724 205.891 30.88 206.567 30.88ZM221.632 34.208C219.986 34.208 218.703 33.792 217.784 32.96C216.866 32.1107 216.406 30.854 216.406 29.19V16.918H220.462V29.138C220.462 29.7273 220.618 30.1867 220.93 30.516C221.242 30.828 221.667 30.984 222.204 30.984C222.846 30.984 223.392 30.8107 223.842 30.464L224.934 33.324C224.518 33.6187 224.016 33.844 223.426 34C222.854 34.1387 222.256 34.208 221.632 34.208ZM214.248 23.444V20.324H223.946V23.444H214.248ZM232.396 34.208C230.905 34.208 229.579 33.896 228.418 33.272C227.274 32.648 226.364 31.7987 225.688 30.724C225.029 29.632 224.7 28.3927 224.7 27.006C224.7 25.602 225.029 24.3627 225.688 23.288C226.364 22.196 227.274 21.3467 228.418 20.74C229.579 20.116 230.905 19.804 232.396 19.804C233.869 19.804 235.186 20.116 236.348 20.74C237.509 21.3467 238.419 22.1873 239.078 23.262C239.736 24.3367 240.066 25.5847 240.066 27.006C240.066 28.3927 239.736 29.632 239.078 30.724C238.419 31.7987 237.509 32.648 236.348 33.272C235.186 33.896 233.869 34.208 232.396 34.208ZM232.396 30.88C233.072 30.88 233.678 30.724 234.216 30.412C234.753 30.1 235.178 29.658 235.49 29.086C235.802 28.4967 235.958 27.8033 235.958 27.006C235.958 26.1913 235.802 25.498 235.49 24.926C235.178 24.354 234.753 23.912 234.216 23.6C233.678 23.288 233.072 23.132 232.396 23.132C231.72 23.132 231.113 23.288 230.576 23.6C230.038 23.912 229.605 24.354 229.276 24.926C228.964 25.498 228.808 26.1913 228.808 27.006C228.808 27.8033 228.964 28.4967 229.276 29.086C229.605 29.658 230.038 30.1 230.576 30.412C231.113 30.724 231.72 30.88 232.396 30.88Z" fill="#150225"/>
<defs>
<clipPath id="clip0_8958_7436">
<rect width="53" height="50" fill="white"/>
</clipPath>
</defs>
</svg>
