<svg width="927" height="196" viewBox="0 0 927 196" fill="none" xmlns="http://www.w3.org/2000/svg">
<path d="M171.006 32.7816C155.683 15.1477 134.505 3.54152 111.524 0.225044C111.072 0.150146 110.623 0.150146 110.173 0.150146V3.31533V0.150146C105.441 0.150146 101.385 3.69281 100.71 8.36494C99.9578 13.5643 103.563 18.4627 108.821 19.2161C127.295 21.9289 144.267 31.1998 156.659 45.4424C169.161 59.8171 176.041 78.198 176.036 97.2147C176.036 118.242 167.849 138.061 153.055 152.907C138.184 167.828 118.509 175.968 97.5556 175.968C80.5083 175.968 64.2854 170.541 50.6181 160.369C48.965 159.086 47.0125 158.484 44.9096 158.484C43.4207 158.488 41.9533 158.837 40.6237 159.505C39.2941 160.172 38.139 161.139 37.2501 162.328C34.0958 166.548 34.9968 172.577 39.2026 175.742C56.1746 188.478 76.3025 195.186 97.5556 195.186C123.616 195.186 148.172 185.011 166.573 166.473C185.048 147.934 195.187 123.366 195.187 97.2147C195.111 73.4766 186.549 50.5669 171.003 32.7816H171.006ZM164.246 164.137C146.372 182.072 122.715 191.869 97.4819 191.869C76.9794 191.869 57.4532 185.387 41.0062 173.104C38.2279 170.994 37.6262 167 39.7291 164.136C41.0077 162.478 42.8834 161.574 44.8359 161.574C46.1882 161.574 47.4652 161.95 48.6671 162.855C62.8609 173.48 79.7592 179.133 97.4819 179.133C119.337 179.133 139.839 170.618 155.235 155.093C170.705 139.568 179.191 118.995 179.191 97.1398C179.191 77.3204 172.056 58.178 159.064 43.2568C146.223 28.487 128.499 18.7653 109.273 15.9761C105.818 15.4488 103.414 12.2087 103.866 8.74093C104.317 5.57575 107.02 3.24043 110.174 3.24043C110.475 3.24043 110.775 3.24043 111.075 3.31533C133.305 6.55541 153.732 17.7107 168.603 34.8174C183.622 52.0738 191.883 74.1537 191.883 97.1398C191.883 122.461 182.046 146.276 164.246 164.136V164.137Z" fill="#E7004C"/>
<path d="M34.4706 144.24C24.2569 130.524 18.926 114.246 18.926 97.1395C18.926 91.9401 19.451 86.6643 20.5024 81.5398C20.8036 80.0944 21.595 78.7963 22.7438 77.8634C23.8926 76.9305 25.3288 76.4197 26.8111 76.4168H85.0889C90.1957 76.4168 94.3262 72.1191 94.3262 66.8448C94.3262 61.569 90.1957 57.2729 85.0904 57.2729H33.3454C32.9875 57.2738 32.6363 57.1757 32.3312 56.9895C32.026 56.8033 31.7787 56.5363 31.6171 56.2183C31.4666 55.9172 31.0906 55.0889 31.6923 54.1092C33.72 51.0189 35.9733 48.0035 38.377 45.2907C50.7687 31.0481 67.7408 21.7788 86.2155 19.066C91.3975 18.3125 95.0768 13.4142 94.3262 8.2133C93.6493 3.54117 89.597 0 84.8647 0C84.4135 0 83.9622 -2.79016e-08 83.5109 0.0748978C60.5311 3.39137 39.3532 14.9975 24.0328 32.6315C8.48677 50.4916 0 73.325 0 96.9897C0 118.241 6.68322 138.513 19.3758 155.545C20.2648 156.734 21.4202 157.701 22.75 158.368C24.0799 159.036 25.5476 159.385 27.0367 159.389C29.0929 159.387 31.0938 158.726 32.7437 157.504C33.7569 156.747 34.61 155.798 35.2542 154.711C35.8985 153.625 36.3212 152.423 36.4982 151.174C36.6487 148.762 35.9733 146.275 34.4706 144.24ZM30.6408 155.092C29.5338 155.915 28.1921 156.363 26.8111 156.373C24.8586 156.373 22.9814 155.47 21.7043 153.812C9.46301 137.382 3.00391 117.789 3.00391 97.1395C3.00391 74.2297 11.2651 52.0735 26.2846 34.8155C41.1553 17.7088 61.5825 6.55506 83.8118 3.31498C84.1126 3.24008 84.4135 3.24008 84.7143 3.24008C86.2548 3.24578 87.7415 3.80552 88.9004 4.81624C90.0593 5.82696 90.8126 7.22061 91.0215 8.74058C91.548 12.2083 89.1442 15.4484 85.6153 15.9757C66.3885 18.7649 48.6658 28.4851 35.8228 43.2565C33.2999 46.1511 30.991 49.224 28.914 52.451C26.6607 55.9172 29.1396 60.5145 33.2702 60.5145H85.0152C88.3936 60.5145 91.0967 63.3785 91.0967 66.9197C91.0967 70.4624 88.3936 73.325 85.0137 73.325H26.7359C24.517 73.3165 22.3648 74.08 20.651 75.4836C18.9372 76.8872 17.7695 78.8427 17.3496 81.0125C16.2927 86.3488 15.7637 91.7753 15.7702 97.2144C15.7702 115 21.4035 131.957 31.9931 146.199C34.0208 148.988 33.4191 152.982 30.6408 155.092V155.092Z" fill="white"/>
<path d="M151.401 57.2774H111.222C105.964 57.2774 101.683 61.572 101.683 66.8478C101.683 72.1221 105.964 76.4198 111.22 76.4198H151.401C156.658 76.4198 160.937 72.1221 160.937 66.8478C160.937 61.572 156.658 57.2759 151.401 57.2759V57.2774ZM151.401 73.2531H111.222C107.691 73.2531 104.838 70.389 104.838 66.8478C104.838 63.3052 107.691 60.4426 111.222 60.4426H151.399C154.93 60.4426 157.783 63.3052 157.783 66.8478C157.708 70.389 154.854 73.2531 151.401 73.2531V73.2531ZM38.523 85.7625C33.2673 85.7625 28.9863 90.0587 28.9863 95.3345C28.9863 114.174 36.0456 131.959 48.9623 145.299C61.8805 158.713 79.1519 166.173 97.4777 166.173C115.802 166.173 133.075 158.788 145.993 145.299C158.835 131.959 165.969 114.174 165.969 95.3345C165.969 90.0587 161.69 85.7625 156.432 85.7625H38.523ZM162.741 95.3345C162.741 113.346 155.981 130.301 143.665 143.037C131.348 155.849 114.901 162.933 97.4025 162.933C79.904 162.933 63.4569 155.849 51.1404 143.037C38.8239 130.301 32.0655 113.346 32.0655 95.3345C32.0655 91.7918 34.9189 88.9277 38.4493 88.9277H156.357C159.886 88.9277 162.741 91.7918 162.741 95.3345V95.3345Z" fill="#903FFF"/>
<path d="M97.4785 150.195C124.44 150.195 146.669 128.943 149.75 101.738H45.207C48.2862 128.943 70.5154 150.195 97.4785 150.195ZM130.374 133.842C121.287 142.358 109.646 147.03 97.48 147.03C85.3139 147.03 73.6728 142.356 64.5858 133.842C56.3999 126.231 50.917 116.057 48.9646 104.903H146.071C144.043 115.98 138.56 126.154 130.374 133.842ZM126.392 35.0426C118.507 29.617 108.219 26.678 97.4032 26.678C86.5127 26.678 76.1487 29.6919 68.2651 35.1939C65.4853 37.1532 64.2835 40.6195 65.3349 43.8595C65.8123 45.4322 66.7862 46.8097 68.1121 47.7874C69.438 48.7651 71.0452 49.2908 72.695 49.2866L122.187 49.2117C125.567 49.2117 128.495 47.0247 129.547 43.7846C130.448 40.4697 129.246 37.0019 126.392 35.0426V35.0426ZM126.392 42.7301C125.791 44.6145 124.064 45.8953 122.111 45.8953L72.6198 45.9702C70.6674 45.9702 68.9405 44.6894 68.3388 42.805C67.7387 40.9205 68.4893 38.8863 70.0672 37.7569C77.4273 32.6309 87.1896 29.8432 97.4032 29.8432C107.617 29.8432 117.304 32.6309 124.59 37.6805C126.242 38.8114 126.993 40.8456 126.392 42.7286V42.7301Z" fill="#903FFF"/>
<path d="M254.607 94.9463H288.335V107.996H254.607V94.9463ZM255.812 133.593H239.55V63.3264H292.652V76.3759H255.812V133.593ZM330.098 133.593V123.053L329.094 120.744V101.873C329.094 98.5265 328.057 95.9166 325.983 94.0428C323.975 92.1691 320.863 91.2322 316.647 91.2322C313.77 91.2322 310.926 91.7006 308.115 92.6375C305.371 93.5075 303.029 94.712 301.088 96.2512L295.467 85.3097C298.412 83.2352 301.958 81.6291 306.107 80.4915C310.256 79.3538 314.472 78.785 318.755 78.785C326.987 78.785 333.377 80.7257 337.928 84.6071C342.479 88.4884 344.754 94.5447 344.754 102.776V133.593H330.098ZM313.636 134.396C309.42 134.396 305.806 133.693 302.795 132.288C299.783 130.816 297.475 128.841 295.869 126.365C294.262 123.889 293.459 121.112 293.459 118.034C293.459 114.822 294.229 112.011 295.768 109.602C297.374 107.193 299.884 105.319 303.297 103.981C306.71 102.575 311.16 101.873 316.647 101.873H331.002V111.007H318.354C314.673 111.007 312.13 111.609 310.725 112.814C309.386 114.019 308.717 115.524 308.717 117.331C308.717 119.339 309.487 120.945 311.026 122.149C312.632 123.287 314.807 123.856 317.551 123.856C320.161 123.856 322.503 123.254 324.577 122.049C326.652 120.778 328.158 118.937 329.094 116.528L331.504 123.755C330.366 127.235 328.291 129.879 325.28 131.686C322.269 133.492 318.387 134.396 313.636 134.396ZM377.698 134.396C373.214 134.396 369.199 133.526 365.652 131.786C362.172 130.046 359.462 127.403 357.521 123.856C355.58 120.242 354.61 115.658 354.61 110.104V79.588H370.269V107.795C370.269 112.279 371.206 115.591 373.08 117.733C375.021 119.807 377.731 120.844 381.211 120.844C383.62 120.844 385.761 120.343 387.635 119.339C389.509 118.268 390.981 116.662 392.052 114.52C393.123 112.312 393.658 109.568 393.658 106.289V79.588H409.317V133.593H394.461V118.736L397.171 123.053C395.364 126.8 392.688 129.644 389.141 131.585C385.661 133.459 381.847 134.396 377.698 134.396ZM445.908 134.396C440.086 134.396 434.9 133.225 430.349 130.882C425.799 128.473 422.219 125.161 419.609 120.945C417.066 116.729 415.794 111.944 415.794 106.59C415.794 101.17 417.066 96.385 419.609 92.236C422.219 88.02 425.799 84.7409 430.349 82.3987C434.9 79.9896 440.086 78.785 445.908 78.785C451.597 78.785 456.549 79.9896 460.765 82.3987C464.981 84.7409 468.093 88.1204 470.1 92.5371L457.954 99.0619C456.549 96.5189 454.775 94.6451 452.634 93.4406C450.559 92.236 448.284 91.6337 445.808 91.6337C443.131 91.6337 440.722 92.236 438.581 93.4406C436.439 94.6451 434.733 96.3516 433.461 98.56C432.257 100.768 431.654 103.445 431.654 106.59C431.654 109.736 432.257 112.412 433.461 114.621C434.733 116.829 436.439 118.536 438.581 119.74C440.722 120.945 443.131 121.547 445.808 121.547C448.284 121.547 450.559 120.978 452.634 119.841C454.775 118.636 456.549 116.729 457.954 114.119L470.1 120.744C468.093 125.094 464.981 128.473 460.765 130.882C456.549 133.225 451.597 134.396 445.908 134.396ZM501.217 134.396C495.06 134.396 489.639 133.191 484.955 130.782C480.337 128.373 476.757 125.094 474.214 120.945C471.671 116.729 470.4 111.944 470.4 106.59C470.4 101.17 471.638 96.385 474.114 92.236C476.657 88.02 480.103 84.7409 484.453 82.3987C488.803 79.9896 493.721 78.785 499.209 78.785C504.496 78.785 509.247 79.9226 513.463 82.1979C517.746 84.4063 521.125 87.6185 523.601 91.8345C526.077 95.9835 527.316 100.969 527.316 106.791C527.316 107.393 527.282 108.096 527.215 108.899C527.148 109.635 527.081 110.338 527.014 111.007H483.148V101.873H518.783L512.76 104.583C512.76 101.772 512.192 99.3295 511.054 97.255C509.916 95.1805 508.344 93.5744 506.336 92.4367C504.328 91.2322 501.986 90.6299 499.309 90.6299C496.633 90.6299 494.257 91.2322 492.182 92.4367C490.175 93.5744 488.602 95.2139 487.464 97.3554C486.327 99.4299 485.758 101.906 485.758 104.784V107.193C485.758 110.137 486.394 112.747 487.665 115.022C489.004 117.231 490.844 118.937 493.186 120.142C495.595 121.279 498.406 121.848 501.618 121.848C504.496 121.848 507.005 121.413 509.147 120.543C511.355 119.673 513.363 118.368 515.169 116.628L523.501 125.663C521.025 128.473 517.913 130.648 514.166 132.187C510.418 133.66 506.102 134.396 501.217 134.396ZM555.809 134.396C549.452 134.396 544.5 132.79 540.953 129.578C537.406 126.298 535.633 121.447 535.633 115.022V67.6427H551.292V114.822C551.292 117.097 551.895 118.87 553.099 120.142C554.304 121.346 555.943 121.949 558.018 121.949C560.494 121.949 562.602 121.279 564.342 119.941L568.558 130.983C566.952 132.121 565.011 132.99 562.736 133.593C560.527 134.128 558.219 134.396 555.809 134.396ZM527.301 92.8383V80.7926H564.743V92.8383H527.301ZM632.477 134.797C627.057 134.797 622.004 133.927 617.32 132.187C612.703 130.381 608.687 127.838 605.274 124.559C601.861 121.279 599.185 117.432 597.244 113.015C595.37 108.598 594.433 103.746 594.433 98.4596C594.433 93.1729 595.37 88.3211 597.244 83.9044C599.185 79.4877 601.861 75.6397 605.274 72.3606C608.754 69.0815 612.803 66.572 617.42 64.8321C622.038 63.0252 627.09 62.1218 632.578 62.1218C638.668 62.1218 644.155 63.1925 649.04 65.334C653.992 67.4085 658.141 70.4869 661.487 74.569L651.048 84.2055C648.639 81.4618 645.962 79.4207 643.017 78.0823C640.073 76.677 636.861 75.9743 633.381 75.9743C630.102 75.9743 627.09 76.5097 624.347 77.5804C621.603 78.6511 619.227 80.1903 617.22 82.1979C615.212 84.2055 613.639 86.5812 612.502 89.3249C611.431 92.0687 610.896 95.1136 610.896 98.4596C610.896 101.806 611.431 104.85 612.502 107.594C613.639 110.338 615.212 112.714 617.22 114.721C619.227 116.729 621.603 118.268 624.347 119.339C627.09 120.409 630.102 120.945 633.381 120.945C636.861 120.945 640.073 120.276 643.017 118.937C645.962 117.532 648.639 115.424 651.048 112.613L661.487 122.25C658.141 126.332 653.992 129.444 649.04 131.585C644.155 133.727 638.634 134.797 632.477 134.797ZM667.35 133.593V79.588H682.306V94.8459L680.198 90.4291C681.804 86.6147 684.381 83.7371 687.928 81.7964C691.474 79.7888 695.791 78.785 700.877 78.785V93.2398C700.207 93.1729 699.605 93.1394 699.07 93.1394C698.534 93.0725 697.966 93.039 697.363 93.039C693.08 93.039 689.601 94.2771 686.924 96.7531C684.314 99.1622 683.009 102.943 683.009 108.096V133.593H667.35ZM714.861 153.87C712.05 153.87 709.273 153.435 706.529 152.565C703.786 151.695 701.544 150.49 699.804 148.951L705.526 137.809C706.73 138.879 708.102 139.716 709.641 140.318C711.247 140.921 712.82 141.222 714.359 141.222C716.567 141.222 718.307 140.686 719.579 139.616C720.917 138.612 722.122 136.905 723.192 134.496L726.003 127.871L727.208 126.165L746.581 79.588H761.638L737.246 136.905C735.506 141.255 733.498 144.668 731.223 147.144C729.015 149.62 726.539 151.36 723.795 152.364C721.118 153.368 718.14 153.87 714.861 153.87ZM724.096 135.701L700.005 79.588H716.166L734.837 124.759L724.096 135.701ZM795.934 134.396C791.383 134.396 787.402 133.392 783.989 131.384C780.576 129.377 777.899 126.332 775.958 122.25C774.084 118.101 773.147 112.881 773.147 106.59C773.147 100.233 774.051 95.0132 775.858 90.931C777.665 86.8489 780.275 83.804 783.687 81.7964C787.1 79.7888 791.183 78.785 795.934 78.785C801.02 78.785 805.57 79.9561 809.586 82.2983C813.668 84.5736 816.88 87.7858 819.222 91.9348C821.631 96.0839 822.836 100.969 822.836 106.59C822.836 112.279 821.631 117.197 819.222 121.346C816.88 125.495 813.668 128.708 809.586 130.983C805.57 133.258 801.02 134.396 795.934 134.396ZM764.013 153.067V79.588H778.97V90.6299L778.668 106.691L779.672 122.651V153.067H764.013ZM793.224 121.547C795.833 121.547 798.142 120.945 800.15 119.74C802.224 118.536 803.864 116.829 805.069 114.621C806.34 112.346 806.976 109.669 806.976 106.59C806.976 103.445 806.34 100.768 805.069 98.56C803.864 96.3516 802.224 94.6451 800.15 93.4406C798.142 92.236 795.833 91.6337 793.224 91.6337C790.614 91.6337 788.271 92.236 786.197 93.4406C784.122 94.6451 782.483 96.3516 781.278 98.56C780.074 100.768 779.471 103.445 779.471 106.59C779.471 109.669 780.074 112.346 781.278 114.621C782.483 116.829 784.122 118.536 786.197 119.74C788.271 120.945 790.614 121.547 793.224 121.547ZM851.387 134.396C845.03 134.396 840.078 132.79 836.531 129.578C832.984 126.298 831.211 121.447 831.211 115.022V67.6427H846.87V114.822C846.87 117.097 847.472 118.87 848.677 120.142C849.881 121.346 851.521 121.949 853.595 121.949C856.071 121.949 858.179 121.279 859.919 119.941L864.135 130.983C862.529 132.121 860.589 132.99 858.313 133.593C856.105 134.128 853.796 134.396 851.387 134.396ZM822.879 92.8383V80.7926H860.321V92.8383H822.879ZM892.941 134.396C887.186 134.396 882.067 133.191 877.583 130.782C873.167 128.373 869.653 125.094 867.043 120.945C864.5 116.729 863.229 111.944 863.229 106.59C863.229 101.17 864.5 96.385 867.043 92.236C869.653 88.02 873.167 84.7409 877.583 82.3987C882.067 79.9896 887.186 78.785 892.941 78.785C898.63 78.785 903.716 79.9896 908.199 82.3987C912.683 84.7409 916.196 87.9865 918.739 92.1356C921.282 96.2847 922.554 101.103 922.554 106.59C922.554 111.944 921.282 116.729 918.739 120.945C916.196 125.094 912.683 128.373 908.199 130.782C903.716 133.191 898.63 134.396 892.941 134.396ZM892.941 121.547C895.551 121.547 897.894 120.945 899.968 119.74C902.043 118.536 903.682 116.829 904.887 114.621C906.091 112.346 906.694 109.669 906.694 106.59C906.694 103.445 906.091 100.768 904.887 98.56C903.682 96.3516 902.043 94.6451 899.968 93.4406C897.894 92.236 895.551 91.6337 892.941 91.6337C890.332 91.6337 887.989 92.236 885.915 93.4406C883.84 94.6451 882.167 96.3516 880.896 98.56C879.691 100.768 879.089 103.445 879.089 106.59C879.089 109.669 879.691 112.346 880.896 114.621C882.167 116.829 883.84 118.536 885.915 119.74C887.989 120.945 890.332 121.547 892.941 121.547Z" fill="white"/>
</svg>
