<svg width="652" height="138" viewBox="0 0 652 138" fill="none" xmlns="http://www.w3.org/2000/svg">
<path d="M120.356 23.5868C109.571 11.1757 94.666 3.00703 78.4913 0.672832C78.1737 0.620117 77.8571 0.620117 77.5406 0.620117V2.84783V0.620117C74.2099 0.620117 71.3557 3.11351 70.8803 6.40184C70.351 10.0613 72.8887 13.5088 76.5888 14.0391C89.5917 15.9484 101.537 22.4734 110.258 32.4976C119.058 42.6148 123.9 55.5517 123.897 68.936C123.897 83.735 118.134 97.6843 107.722 108.133C97.2556 118.635 83.4079 124.364 68.6603 124.364C56.6621 124.364 45.2441 120.544 35.6248 113.385C34.4613 112.482 33.0871 112.059 31.6071 112.059C30.5592 112.061 29.5264 112.307 28.5906 112.777C27.6548 113.246 26.8418 113.927 26.2162 114.764C23.9961 117.734 24.6303 121.977 27.5904 124.205C39.5356 133.169 53.702 137.89 68.6603 137.89C87.0021 137.89 104.285 130.729 117.236 117.681C130.239 104.633 137.375 87.3417 137.375 68.936C137.322 52.2286 131.296 36.1043 120.354 23.5868H120.356ZM115.598 116.037C103.018 128.66 86.368 135.555 68.6084 135.555C54.1784 135.555 40.4355 130.994 28.8597 122.348C26.9043 120.863 26.4809 118.052 27.9609 116.036C28.8608 114.869 30.181 114.234 31.5552 114.234C32.5069 114.234 33.4058 114.498 34.2517 115.135C44.2415 122.613 56.1349 126.592 68.6084 126.592C83.9901 126.592 98.4201 120.598 109.256 109.672C120.145 98.7449 126.117 84.2653 126.117 68.8833C126.117 54.9339 121.095 41.4612 111.951 30.9594C102.913 20.5641 90.4386 13.7218 76.9075 11.7587C74.4757 11.3876 72.7839 9.10715 73.1015 6.66647C73.4191 4.43875 75.3216 2.79512 77.5416 2.79512C77.7534 2.79512 77.9641 2.79512 78.1758 2.84783C93.8212 5.12826 108.198 12.9796 118.664 25.0195C129.236 37.165 135.05 52.7052 135.05 68.8833C135.05 86.705 128.126 103.466 115.598 116.036V116.037Z" fill="#E7004C"/>
<path d="M24.261 102.033C17.0725 92.3802 13.3205 80.9232 13.3205 68.8832C13.3205 65.2238 13.69 61.5106 14.43 57.9038C14.642 56.8866 15.199 55.9729 16.0075 55.3163C16.8161 54.6597 17.8269 54.3002 18.8702 54.2982H59.8871C63.4814 54.2982 66.3885 51.2734 66.3885 47.5613C66.3885 43.8481 63.4814 40.8244 59.8882 40.8244H23.4691C23.2172 40.825 22.9701 40.756 22.7553 40.6249C22.5405 40.4939 22.3665 40.3059 22.2527 40.0821C22.1468 39.8702 21.8821 39.2872 22.3056 38.5977C23.7327 36.4227 25.3187 34.3004 27.0104 32.3911C35.732 22.3669 47.6772 15.843 60.6801 13.9336C64.3273 13.4033 66.9168 9.95581 66.3885 6.29532C65.9121 3.00699 63.06 0.514648 59.7294 0.514648C59.4118 0.514648 59.0942 0.514648 58.7765 0.567363C42.6029 2.90156 27.6975 11.0702 16.9147 23.4813C5.97315 36.0516 0 52.1221 0 68.7778C0 83.735 4.70378 98.0027 13.637 109.99C14.2628 110.827 15.0759 111.508 16.0119 111.977C16.9479 112.447 17.9809 112.693 19.029 112.695C20.4761 112.694 21.8844 112.229 23.0456 111.369C23.7587 110.836 24.3591 110.168 24.8126 109.403C25.266 108.639 25.5636 107.793 25.6881 106.914C25.794 105.216 25.3187 103.466 24.261 102.033ZM21.5656 109.672C20.7864 110.25 19.8421 110.566 18.8702 110.573C17.496 110.573 16.1747 109.937 15.2759 108.77C6.66024 97.2067 2.11421 83.4166 2.11421 68.8832C2.11421 52.7589 7.92855 37.1649 18.4996 25.0184C28.9659 12.9785 43.3429 5.12822 58.9883 2.84779C59.2 2.79508 59.4118 2.79508 59.6235 2.79508C60.7078 2.79909 61.7541 3.19304 62.5697 3.90441C63.3854 4.61577 63.9156 5.59665 64.0626 6.66643C64.4331 9.10711 62.7413 11.3875 60.2577 11.7586C46.7254 13.7217 34.2519 20.563 25.2128 30.9594C23.4371 32.9967 21.812 35.1594 20.3502 37.4306C18.7643 39.8702 20.509 43.1058 23.4162 43.1058H59.8352C62.2131 43.1058 64.1155 45.1216 64.1155 47.614C64.1155 50.1074 62.2131 52.1221 59.8342 52.1221H18.8172C17.2555 52.1161 15.7407 52.6535 14.5346 53.6414C13.3284 54.6293 12.5065 56.0056 12.211 57.5327C11.4671 61.2885 11.0948 65.1078 11.0993 68.9359C11.0993 81.4535 15.0641 93.3881 22.5173 103.412C23.9445 105.375 23.521 108.186 21.5656 109.672V109.672Z" fill="#9A51FE"/>
<path d="M106.561 40.8272H78.2821C74.5819 40.8272 71.5689 43.8499 71.5689 47.5631C71.5689 51.2752 74.5819 54.3 78.281 54.3H106.561C110.261 54.3 113.273 51.2752 113.273 47.5631C113.273 43.8499 110.261 40.8262 106.561 40.8262V40.8272ZM106.561 52.0712H78.2821C75.7973 52.0712 73.789 50.0554 73.789 47.5631C73.789 45.0697 75.7973 43.0549 78.2821 43.0549H106.56C109.045 43.0549 111.053 45.0697 111.053 47.5631C111 50.0554 108.992 52.0712 106.561 52.0712V52.0712ZM27.1154 60.8756C23.4164 60.8756 20.4033 63.8993 20.4033 67.6125C20.4033 80.8723 25.3718 93.3899 34.4628 102.778C43.5548 112.219 55.7107 117.47 68.6088 117.47C81.5058 117.47 93.6628 112.272 102.755 102.778C111.793 93.3899 116.814 80.8723 116.814 67.6125C116.814 63.8993 113.802 60.8756 110.102 60.8756H27.1154ZM114.542 67.6125C114.542 80.2893 109.785 92.2228 101.116 101.186C92.4474 110.204 80.8716 115.189 68.5559 115.189C56.2401 115.189 44.6643 110.204 35.9958 101.186C27.3272 92.2228 22.5705 80.2893 22.5705 67.6125C22.5705 65.1191 24.5788 63.1033 27.0636 63.1033H110.049C112.533 63.1033 114.542 65.1191 114.542 67.6125V67.6125Z" fill="#374151"/>
<path d="M68.6094 106.225C87.5854 106.225 103.231 91.2674 105.399 72.1193H31.8198C33.987 91.2674 49.6323 106.225 68.6094 106.225ZM91.762 94.7149C85.3664 100.709 77.1732 103.997 68.6105 103.997C60.0478 103.997 51.8545 100.707 45.459 94.7149C39.6976 89.358 35.8386 82.1973 34.4644 74.3471H102.809C101.382 82.1435 97.5234 89.3043 91.762 94.7149ZM88.9596 25.1782C83.41 21.3595 76.1685 19.291 68.5565 19.291C60.8915 19.291 53.5971 21.4122 48.0485 25.2846C46.0921 26.6637 45.2462 29.1033 45.9862 31.3837C46.3222 32.4906 47.0076 33.4601 47.9408 34.1482C48.874 34.8363 50.0052 35.2064 51.1664 35.2034L85.9995 35.1507C88.3784 35.1507 90.4397 33.6114 91.1797 31.331C91.8139 28.9979 90.968 26.5572 88.9596 25.1782V25.1782ZM88.9596 30.5888C88.5361 31.9151 87.3208 32.8165 85.9466 32.8165L51.1134 32.8692C49.7393 32.8692 48.5239 31.9678 48.1004 30.6415C47.678 29.3152 48.2063 27.8835 49.3168 27.0885C54.497 23.4808 61.368 21.5187 68.5565 21.5187C75.745 21.5187 82.563 23.4808 87.6913 27.0348C88.8537 27.8308 89.382 29.2625 88.9596 30.5877V30.5888Z" fill="#374151"/>
<path d="M179.197 67.002H202.936V76.1865H179.197V67.002ZM180.045 94.2021H168.6V44.7474H205.973V53.9318H180.045V94.2021ZM232.329 94.2021V86.7839L231.623 85.159V71.8768C231.623 69.5219 230.893 67.685 229.432 66.3662C228.019 65.0474 225.829 64.388 222.862 64.388C220.837 64.388 218.835 64.7177 216.857 65.3771C214.926 65.9894 213.277 66.8372 211.911 67.9205L207.955 60.2196C210.027 58.7596 212.524 57.6292 215.444 56.8285C218.364 56.0278 221.331 55.6274 224.346 55.6274C230.139 55.6274 234.637 56.9933 237.84 59.7251C241.043 62.4569 242.644 66.7194 242.644 72.5127V94.2021H232.329ZM220.743 94.7673C217.775 94.7673 215.232 94.2728 213.112 93.2837C210.993 92.2475 209.368 90.8581 208.238 89.1154C207.107 87.3727 206.542 85.418 206.542 83.2514C206.542 80.9907 207.084 79.0125 208.167 77.3169C209.297 75.6213 211.064 74.3025 213.466 73.3605C215.868 72.3714 219 71.8768 222.862 71.8768H232.965V78.306H224.063C221.473 78.306 219.683 78.7299 218.694 79.5777C217.752 80.4255 217.281 81.4852 217.281 82.7569C217.281 84.1699 217.822 85.3003 218.906 86.1481C220.036 86.9488 221.567 87.3491 223.498 87.3491C225.335 87.3491 226.983 86.9252 228.443 86.0774C229.903 85.1825 230.963 83.8873 231.623 82.1917L233.318 87.2785C232.517 89.7277 231.057 91.5881 228.938 92.8598C226.818 94.1315 224.087 94.7673 220.743 94.7673ZM265.83 94.7673C262.675 94.7673 259.849 94.155 257.352 92.9305C254.903 91.7059 252.996 89.8454 251.63 87.3491C250.264 84.8057 249.581 81.5794 249.581 77.6701V56.1926H260.602V76.0452C260.602 79.2009 261.262 81.5323 262.58 83.0395C263.946 84.4996 265.854 85.2296 268.303 85.2296C269.999 85.2296 271.506 84.8764 272.825 84.1699C274.143 83.4163 275.18 82.2859 275.933 80.7787C276.687 79.2244 277.064 77.2933 277.064 74.9854V56.1926H288.085V94.2021H277.629V83.746L279.536 86.7839C278.265 89.4215 276.381 91.4233 273.884 92.7892C271.435 94.1079 268.75 94.7673 265.83 94.7673ZM313.838 94.7673C309.741 94.7673 306.09 93.9431 302.888 92.2946C299.685 90.599 297.165 88.2676 295.328 85.3003C293.538 82.333 292.643 78.9654 292.643 75.1974C292.643 71.3823 293.538 68.0147 295.328 65.0945C297.165 62.1272 299.685 59.8193 302.888 58.1708C306.09 56.4752 309.741 55.6274 313.838 55.6274C317.842 55.6274 321.327 56.4752 324.295 58.1708C327.262 59.8193 329.452 62.1978 330.865 65.3064L322.316 69.8987C321.327 68.1089 320.079 66.7901 318.572 65.9423C317.112 65.0945 315.51 64.6706 313.768 64.6706C311.884 64.6706 310.188 65.0945 308.681 65.9423C307.174 66.7901 305.973 67.9911 305.078 69.5454C304.23 71.0997 303.806 72.9837 303.806 75.1974C303.806 77.4111 304.23 79.2951 305.078 80.8494C305.973 82.4037 307.174 83.6047 308.681 84.4525C310.188 85.3003 311.884 85.7242 313.768 85.7242C315.51 85.7242 317.112 85.3238 318.572 84.5231C320.079 83.6753 321.327 82.333 322.316 80.4961L330.865 85.159C329.452 88.2205 327.262 90.599 324.295 92.2946C321.327 93.9431 317.842 94.7673 313.838 94.7673ZM352.765 94.7673C348.432 94.7673 344.617 93.9195 341.32 92.224C338.07 90.5284 335.55 88.2205 333.76 85.3003C331.971 82.333 331.076 78.9654 331.076 75.1974C331.076 71.3823 331.947 68.0147 333.69 65.0945C335.48 62.1272 337.905 59.8193 340.967 58.1708C344.028 56.4752 347.49 55.6274 351.352 55.6274C355.073 55.6274 358.417 56.4281 361.385 58.0295C364.399 59.5838 366.777 61.8446 368.52 64.8119C370.263 67.7321 371.134 71.241 371.134 75.3387C371.134 75.7626 371.111 76.2571 371.064 76.8223C371.016 77.3404 370.969 77.835 370.922 78.306H340.048V71.8768H365.129L360.89 73.7844C360.89 71.8062 360.49 70.0871 359.689 68.627C358.888 67.1669 357.781 66.0365 356.368 65.2358C354.955 64.388 353.307 63.9641 351.423 63.9641C349.539 63.9641 347.867 64.388 346.407 65.2358C344.994 66.0365 343.887 67.1904 343.086 68.6976C342.286 70.1577 341.885 71.9004 341.885 73.9257V75.6213C341.885 77.6937 342.333 79.5306 343.228 81.132C344.17 82.6862 345.465 83.8873 347.113 84.7351C348.809 85.5358 350.787 85.9361 353.048 85.9361C355.073 85.9361 356.839 85.63 358.347 85.0177C359.901 84.4054 361.314 83.4869 362.586 82.2624L368.449 88.6208C366.707 90.599 364.517 92.1298 361.879 93.2131C359.241 94.2492 356.204 94.7673 352.765 94.7673ZM391.189 94.7673C386.714 94.7673 383.229 93.637 380.733 91.3762C378.236 89.0683 376.988 85.6535 376.988 81.132V47.7853H388.01V80.9907C388.01 82.5921 388.433 83.8402 389.281 84.7351C390.129 85.5829 391.283 86.0068 392.743 86.0068C394.486 86.0068 395.969 85.5358 397.194 84.5938L400.161 92.3653C399.031 93.166 397.665 93.7783 396.064 94.2021C394.509 94.5789 392.884 94.7673 391.189 94.7673ZM371.124 65.5184V57.0404H397.477V65.5184H371.124ZM445.149 95.0499C441.334 95.0499 437.778 94.4376 434.481 93.2131C431.231 91.9414 428.405 90.1516 426.003 87.8437C423.601 85.5358 421.717 82.8275 420.351 79.719C419.032 76.6104 418.373 73.1956 418.373 69.4748C418.373 65.7539 419.032 62.3391 420.351 59.2306C421.717 56.122 423.601 53.4137 426.003 51.1058C428.452 48.798 431.302 47.0317 434.552 45.8071C437.802 44.5354 441.358 43.8996 445.22 43.8996C449.506 43.8996 453.368 44.6532 456.806 46.1604C460.292 47.6205 463.212 49.787 465.567 52.6601L458.219 59.4425C456.524 57.5114 454.64 56.0749 452.567 55.1329C450.495 54.1438 448.234 53.6492 445.785 53.6492C443.477 53.6492 441.358 54.026 439.426 54.7796C437.495 55.5332 435.823 56.6165 434.41 58.0295C432.997 59.4425 431.891 61.1145 431.09 63.0456C430.336 64.9767 429.959 67.1198 429.959 69.4748C429.959 71.8297 430.336 73.9728 431.09 75.9039C431.891 77.835 432.997 79.507 434.41 80.92C435.823 82.333 437.495 83.4163 439.426 84.1699C441.358 84.9235 443.477 85.3003 445.785 85.3003C448.234 85.3003 450.495 84.8293 452.567 83.8873C454.64 82.8982 456.524 81.4146 458.219 79.4364L465.567 86.2187C463.212 89.0918 460.292 91.282 456.806 92.7892C453.368 94.2963 449.482 95.0499 445.149 95.0499ZM469.693 94.2021V56.1926H480.22V66.9314L478.736 63.8228C479.866 61.1381 481.68 59.1128 484.176 57.7469C486.672 56.3339 489.71 55.6274 493.29 55.6274V65.801C492.819 65.7539 492.395 65.7303 492.018 65.7303C491.641 65.6832 491.241 65.6597 490.817 65.6597C487.803 65.6597 485.353 66.531 483.469 68.2737C481.633 69.9693 480.714 72.6304 480.714 76.2571V94.2021H469.693ZM503.132 108.473C501.154 108.473 499.199 108.167 497.268 107.555C495.337 106.943 493.759 106.095 492.535 105.012L496.562 97.1694C497.409 97.923 498.375 98.5118 499.458 98.9357C500.589 99.3596 501.696 99.5715 502.779 99.5715C504.333 99.5715 505.558 99.1947 506.453 98.4411C507.395 97.7346 508.242 96.5336 508.996 94.838L510.974 90.1751L511.822 88.9741L525.457 56.1926H536.055L518.887 96.5336C517.662 99.5951 516.249 101.997 514.648 103.74C513.094 105.483 511.351 106.707 509.42 107.414C507.536 108.12 505.44 108.473 503.132 108.473ZM509.632 95.6858L492.676 56.1926H504.051L517.191 87.985L509.632 95.6858ZM560.193 94.7673C556.99 94.7673 554.187 94.0608 551.785 92.6479C549.383 91.2349 547.499 89.0918 546.133 86.2187C544.815 83.2985 544.155 79.6248 544.155 75.1974C544.155 70.7229 544.791 67.0491 546.063 64.176C547.334 61.3029 549.171 59.1599 551.573 57.7469C553.976 56.3339 556.849 55.6274 560.193 55.6274C563.772 55.6274 566.975 56.4517 569.801 58.1002C572.674 59.7016 574.935 61.9623 576.583 64.8825C578.279 67.8027 579.127 71.241 579.127 75.1974C579.127 79.2009 578.279 82.6627 576.583 85.5829C574.935 88.5031 572.674 90.7639 569.801 92.3653C566.975 93.9666 563.772 94.7673 560.193 94.7673ZM537.726 107.908V56.1926H548.253V63.9641L548.041 75.268L548.747 86.5013V107.908H537.726ZM558.285 85.7242C560.122 85.7242 561.747 85.3003 563.16 84.4525C564.62 83.6047 565.774 82.4037 566.622 80.8494C567.517 79.248 567.964 77.364 567.964 75.1974C567.964 72.9837 567.517 71.0997 566.622 69.5454C565.774 67.9911 564.62 66.7901 563.16 65.9423C561.747 65.0945 560.122 64.6706 558.285 64.6706C556.448 64.6706 554.8 65.0945 553.34 65.9423C551.88 66.7901 550.726 67.9911 549.878 69.5454C549.03 71.0997 548.606 72.9837 548.606 75.1974C548.606 77.364 549.03 79.248 549.878 80.8494C550.726 82.4037 551.88 83.6047 553.34 84.4525C554.8 85.3003 556.448 85.7242 558.285 85.7242ZM599.222 94.7673C594.747 94.7673 591.262 93.637 588.766 91.3762C586.269 89.0683 585.021 85.6535 585.021 81.132V47.7853H596.042V80.9907C596.042 82.5921 596.466 83.8402 597.314 84.7351C598.162 85.5829 599.316 86.0068 600.776 86.0068C602.519 86.0068 604.002 85.5358 605.227 84.5938L608.194 92.3653C607.064 93.166 605.698 93.7783 604.097 94.2021C602.542 94.5789 600.917 94.7673 599.222 94.7673ZM579.157 65.5184V57.0404H605.51V65.5184H579.157ZM628.468 94.7673C624.418 94.7673 620.815 93.9195 617.659 92.224C614.55 90.5284 612.078 88.2205 610.241 85.3003C608.451 82.333 607.556 78.9654 607.556 75.1974C607.556 71.3823 608.451 68.0147 610.241 65.0945C612.078 62.1272 614.55 59.8193 617.659 58.1708C620.815 56.4752 624.418 55.6274 628.468 55.6274C632.472 55.6274 636.052 56.4752 639.207 58.1708C642.363 59.8193 644.836 62.1036 646.625 65.0238C648.415 67.944 649.31 71.3352 649.31 75.1974C649.31 78.9654 648.415 82.333 646.625 85.3003C644.836 88.2205 642.363 90.5284 639.207 92.224C636.052 93.9195 632.472 94.7673 628.468 94.7673ZM628.468 85.7242C630.305 85.7242 631.954 85.3003 633.414 84.4525C634.874 83.6047 636.028 82.4037 636.876 80.8494C637.724 79.248 638.147 77.364 638.147 75.1974C638.147 72.9837 637.724 71.0997 636.876 69.5454C636.028 67.9911 634.874 66.7901 633.414 65.9423C631.954 65.0945 630.305 64.6706 628.468 64.6706C626.632 64.6706 624.983 65.0945 623.523 65.9423C622.063 66.7901 620.885 67.9911 619.991 69.5454C619.143 71.0997 618.719 72.9837 618.719 75.1974C618.719 77.364 619.143 79.248 619.991 80.8494C620.885 82.4037 622.063 83.6047 623.523 84.4525C624.983 85.3003 626.632 85.7242 628.468 85.7242Z" fill="#150225"/>
</svg>
